<svg xmlns="http://www.w3.org/2000/svg" width="1200" height="448" viewBox="0 0 1200 448">
<rect width="100%" height="100%" fill="#ffffff"/>
<text x="600.0" y="22" text-anchor="middle" font-family="Arial" font-size="18" font-weight="700">Gain-loss ratio implied by VaR</text>
<text x="58" y="48" font-family="Arial" font-size="15" font-weight="700">BTC</text>
<line x1="58" y1="202" x2="1180" y2="202" stroke="#555"/>
<line x1="58" y1="62" x2="58" y2="202" stroke="#555"/>
<text x="50" y="66" text-anchor="end" font-family="Arial" font-size="11">915.5629634</text>
<text x="50" y="202" text-anchor="end" font-family="Arial" font-size="11">7.239764279</text>
<text x="58" y="222" font-family="Arial" font-size="11">2018-09-28</text>
<text x="1180" y="222" text-anchor="end" font-family="Arial" font-size="11">2023-12-31</text>
<polyline points="58.0,162.01270708222867 58.584375,162.54949903468045 59.16875,163.20540911131178 59.753125,164.00965995773095 60.3375,164.83091306620125 60.921875,165.6828829065632 61.50625,171.75748052793168 62.090625,172.53277144336064 62.675,175.98736461961914 63.259375,177.6088828339432 63.84375,180.33824105882172 64.428125,185.0887935819171 65.0125,187.86580190779878 65.596875,191.9770364552524 66.18125,142.1160314756031 66.765625,140.60111303770447 67.35,143.16321791294587 67.934375,148.573309726763 68.51875,141.0934516922561 69.103125,166.36166945801315 69.6875,180.34365608356248 70.271875,143.93727700284433 70.85625,143.74874061330405 71.440625,157.9472536455657 72.025,153.27336437076286 72.609375,157.05069786489037 73.19375,167.34298446079475 73.778125,143.71601078762927 74.3625,148.20706301328565 74.946875,157.09553024836237 75.53125,139.9768819961464 76.115625,139.18518811299612 76.7,139.91209740279444 77.284375,139.3542541575424 77.86875,146.67101727044312 78.453125,157.97085692844124 79.0375,138.9077872845423 79.621875,138.51794571713012 80.20625,137.93977114560028 80.790625,137.39177134099725 81.375,137.14022812624864 81.959375,137.21967083160894 82.54375,137.4656243646757 83.128125,137.5354511699425 83.7125,146.13147679585097 84.296875,137.26861536481385 84.88125,137.4869962571023 85.465625,137.66236481841224 86.05,163.9980836819102 86.634375,163.841611324883 87.21875,165.46827525713303 87.803125,167.8158483932716 88.3875,172.25655890951933 88.971875,164.42135799944992 89.55625,164.2748941411236 90.140625,164.27754615707198 90.725,164.29118540666872 91.30937499999999,164.27607051384769 91.89375,164.0781599013003 92.478125,156.46550269198278 93.0625,161.65250724279787 93.646875,156.40088258753752 94.23125,161.43252273354187 94.81562500000001,161.24198365311307 95.4,163.530691287029 95.984375,163.46098997407648 96.56875,163.41268029503118 97.153125,163.31107883818981 97.7375,163.18441159120206 98.321875,163.08217320223113 98.90625,160.21212614775885 99.490625,162.87880326476096 100.07499999999999,162.74379955873175 100.659375,162.6028977048673 101.24375,162.45674253843677 101.828125,161.82692493875138 102.4125,161.67636995899176 102.996875,162.03768469175583 103.58125000000001,161.8643165171183 104.165625,161.6163110639571 104.75,161.31432335083707 105.334375,161.7733048500735 105.91875,161.57087053814737 106.503125,161.35199201632597 107.0875,161.3028165294736 107.671875,161.13179457430073 108.25625,161.08428902600537 108.84062499999999,160.91185423784245 109.425,160.72849762484606 110.009375,160.6733028483009 110.59375,160.52678500086228 111.178125,160.4603612921017 111.7625,160.42045119051065 112.34687500000001,160.33609291420206 112.93125,160.28882701574264 113.515625,160.598519436962 114.1,160.86996221647823 114.684375,161.11277668624237 115.26875,161.32156930847634 115.853125,161.5369811517549 116.4375,161.7340593642118 117.021875,161.7570884582813 117.60624999999999,161.9401482645082 118.190625,162.04931845052735 118.775,162.1346524203021 119.359375,160.65492513110797 119.94375,160.64074201421658 120.528125,160.56295961277323 121.11250000000001,160.48527748711615 121.696875,160.42778320203863 122.28125,160.35823474049363 122.86562500000001,159.00879792713317 123.45,159.35030549598582 124.034375,160.0707320778488 124.61874999999999,162.57447965112925 125.203125,164.83549322126728 125.7875,170.81926380740808 126.371875,159.66965940064853 126.95625,159.59396789192462 127.540625,159.5527162479879 128.125,159.45341123654825 128.709375,159.43005840676196 129.29375,159.37228362213284 129.878125,159.48095600444464 130.4625,159.551662740163 131.046875,159.65426889962424 131.63125000000002,159.84304839167356 132.215625,160.03608308587718 132.8,160.26783888669385 133.38437499999998,160.36189154835074 133.96875,160.75849603661055 134.553125,161.11746155897714 135.1375,161.4598287536715 135.721875,161.84711260630533 136.30625,160.73168686622057 136.890625,161.5717949606193 137.475,163.50274705835358 138.059375,165.67441160645376 138.64375,169.5924701580353 139.228125,161.6023546662546 139.8125,161.61198375605468 140.39687500000002,161.50140918668254 140.98125,161.27821544367987 141.565625,161.04485051517062 142.14999999999998,161.1319136250225 142.734375,160.95225181991924 143.31875,160.70045836684616 143.903125,160.5478402803165 144.4875,160.9043754658735 145.071875,160.66468235341515 145.65625,161.1070034484342 146.240625,161.4131872726159 146.825,161.70687882276508 147.409375,161.7145537379946 147.99375,162.01369335933757 148.578125,161.82502522344686 149.16250000000002,161.70019043221185 149.746875,161.73845277268862 150.33125,161.69237815780969 150.91562499999998,161.50184832698642 151.5,161.47543479727102 152.084375,161.3868963648162 152.66875,161.1473133162456 153.253125,161.11332245960597 153.8375,160.44596239612747 154.421875,155.3920948791004 155.00625,155.55455056674123 155.590625,159.21253457422432 156.175,159.31977151242833 156.759375,162.89112892746058 157.34375,169.21645481541066 157.92812500000002,182.64847342907777 158.5125,184.30147699358074 159.096875,161.65795038269738 159.68124999999998,161.8107185638717 160.265625,168.37233296694362 160.85,173.68147692134082 161.434375,162.24787070822268 162.01875,162.49233731013172 162.603125,162.36387253399658 163.1875,162.26768782837468 163.771875,159.09231936613395 164.35625,159.82821552062578 164.940625,176.99413202186742 165.525,156.18103594063172 166.109375,156.7964736937833 166.69375000000002,167.47825236272337 167.278125,169.18032147922514 167.8625,153.71588301010576 168.44687499999998,154.24422223839267 169.03125,153.53629330483193 169.615625,153.29780554837677 170.2,152.94290934519307 170.784375,152.8073075952007 171.36875,152.48329200730757 171.953125,152.34002646450782 172.5375,152.69038863164974 173.121875,152.6179135623016 173.70625,152.89780717694802 174.290625,152.89418360317438 174.875,152.98574222415135 175.45937500000002,153.13831470063627 176.04375,152.22867565841867 176.628125,153.41444102102975 177.21249999999998,153.6311281795125 177.796875,152.93373115476948 178.38125,152.889479096959 178.965625,154.54896270765448 179.55,156.39296030068644 180.134375,158.8363302751792 180.71875,162.25301891331893 181.303125,168.10952521025732 181.8875,168.08531693687883 182.471875,178.63552854186875 183.05625,149.00181301488487 183.640625,149.18345633775857 184.22500000000002,149.16981363850505 184.809375,148.93321308657858 185.39375,148.94414247573144 185.97812499999998,148.85543186803378 186.5625,148.69298641427983 187.146875,148.49092524227825 187.73125000000002,148.32607824356393 188.315625,148.12137513629014 188.9,147.9310141083527 189.484375,149.290795372527 190.06875,148.10336908363985 190.653125,148.09417060528526 191.23749999999998,147.44831238910024 191.821875,147.45090127912593 192.40625,147.4241193426876 192.990625,147.36592565429234 193.575,147.3014387692176 194.159375,147.2224968267827 194.74375,147.1889690354431 195.328125,147.13094395996885 195.9125,147.0239951038407 196.49687500000002,146.88409964175585 197.08125,146.70970801212894 197.665625,146.47385571706707 198.25,146.22147128654672 198.834375,146.26935376928378 199.41875,146.04877645066446 200.00312499999998,145.77413553985016 200.5875,145.45449671486517 201.171875,145.26539243750608 201.75625,145.24574453889932 202.340625,145.03508650645975 202.925,144.7493372285655 203.509375,144.84560892440567 204.09375,144.7440133700092 204.678125,144.6282008074726 205.26250000000002,144.39891258239115 205.846875,144.69682050259672 206.43125,144.01405048660018 207.015625,143.85018187789086 207.6,143.66446111383436 208.184375,143.46399734201654 208.76874999999998,143.2417068707928 209.353125,143.01887101888354 209.9375,142.88420771437666 210.521875,142.72873779648054 211.10625,142.545718722463 211.690625,142.36015726876715 212.275,142.2184468016059 212.859375,141.65809164214429 213.44375,141.28357818663318 214.02812500000002,141.19061549813892 214.6125,141.38858890969658 215.196875,140.24471573249286 215.78125,139.87495476886025 216.365625,140.29160372640396 216.95,140.93684986311212 217.53437499999998,141.85571707744566 218.11875,141.40769438652848 218.703125,141.56453435032256 219.2875,141.37708765357206 219.871875,141.59912055233752 220.45625,141.73740636858264 221.040625,141.5130611128634 221.625,141.5056693932489 222.209375,141.50965756827418 222.79375000000002,141.40550626624602 223.378125,141.24401400238426 223.9625,141.78365574377665 224.546875,141.5957843550401 225.13125,141.48795668500716 225.715625,141.25374472466245 226.29999999999998,140.82320033990197 226.884375,140.48115947045568 227.46875,139.77610414388965 228.053125,139.45179758014802 228.6375,139.6799701043065 229.221875,139.55756444283725 229.80625,139.50664569152394 230.390625,139.58495866144463 230.975,139.53433928252352 231.55937500000002,139.393125962192 232.14375,139.20726688329682 232.728125,139.1630874077463 233.3125,139.50588088392573 233.896875,139.98055133610976 234.48125,140.09584743352636 235.06562499999998,141.60197802491595 235.65,142.65343705351455 236.234375,152.86952903300158 236.81875,162.46746808363326 237.403125,138.79448043509836 237.9875,138.81304068163192 238.571875,138.51284547712322 239.15625,138.39313484832803 239.740625,138.00117891850812 240.32500000000002,138.9591525737855 240.909375,138.90418746797434 241.49375,138.68589030050293 242.078125,138.34101589965132 242.6625,137.85527230210894 243.246875,137.77719489502704 243.83124999999998,137.5415035309971 244.415625,137.28817844439538 245.0,137.985772167454 245.584375,137.23919636941923 246.16875,137.55004542869975 246.753125,137.7795977280297 247.3375,137.46605235144247 247.921875,137.46893228579546 248.50625,136.63451645098877 249.09062500000002,135.92741581844734 249.675,135.75380626156874 250.259375,135.66745428049367 250.84375,135.51971499748603 251.428125,135.39368853878273 252.0125,135.2542494705611 252.59687499999998,135.08207433382296 253.18125,134.97720204974195 253.765625,134.95060844242425 254.35,134.9600458665795 254.934375,134.8772390594752 255.51875,134.82909159800766 256.103125,134.75374545428053 256.6875,134.77862475963082 257.271875,134.84185321302692 257.85625000000005,134.9838517367494 258.440625,135.12746074432772 259.025,135.27676363946676 259.609375,135.39624581773523 260.19375,135.589510237978 260.778125,135.778900335205 261.36249999999995,135.97292060390058 261.946875,136.14291622125342 262.53125,135.91718282122537 263.115625,135.5287493767574 263.7,135.20927020944518 264.284375,134.95722582057192 264.86875,134.68227783759642 265.453125,133.76264689625938 266.0375,132.6513825513273 266.62187500000005,130.24584443235602 267.20625,128.0188556816028 267.790625,127.7625471085432 268.375,127.96816381601056 268.959375,127.37155145264946 269.54375,142.62922463248216 270.12812499999995,142.27685446810221 270.7125,142.51684394202255 271.296875,142.60266602331743 271.88125,143.63628768516355 272.465625,144.69732892211113 273.05,146.06651377318497 273.634375,175.84046242724486 274.21875,175.28365420139053 274.803125,167.51662184857605 275.38750000000005,168.66804849312618 275.971875,170.2889002166726 276.55625,173.39854054782296 277.140625,178.906859342961 277.725,147.95395502024778 278.309375,147.9257727225055 278.89374999999995,147.88418800314946 279.478125,147.66475172171516 280.0625,147.4553817596328 280.646875,147.22244416302732 281.23125,147.4818736405354 281.815625,147.45136819927956 282.4,147.48571917882686 282.984375,147.48587885909058 283.56875,147.574099629869 284.15312500000005,147.63968493712662 284.7375,140.16155631901336 285.321875,147.6521848680261 285.90625,147.70931752657322 286.490625,147.21436414429144 287.075,147.3442924717198 287.65937499999995,143.5599323124073 288.24375,143.64534550721413 288.828125,143.5594206877316 289.4125,143.3792534042364 289.996875,143.32783332376238 290.58125,143.41123836829283 291.165625,143.53959596178544 291.75,142.97397667805947 292.334375,144.07087884139474 292.91875000000005,145.63451691024372 293.503125,150.5346166936225 294.0875,157.44667593120795 294.671875,142.80851402329702 295.25625,142.47030245393114 295.840625,142.94020987805624 296.42499999999995,143.13467547357948 297.009375,143.11794679491635 297.59375,143.17169043494272 298.178125,143.3300583130416 298.7625,143.53825035105825 299.346875,143.69008143228837 299.93125,143.70699639173154 300.515625,143.79145272129045 301.1,144.08560989133778 301.68437500000005,144.26306393682614 302.26875,144.50653072738191 302.853125,145.03417351991152 303.4375,144.74872689651357 304.021875,144.41077995766253 304.60625,145.08832786768488 305.19062499999995,145.06311090553712 305.775,144.51177374981435 306.359375,144.11375795536003 306.94375,143.92900554846554 307.528125,143.6181920304041 308.1125,143.37785616433854 308.696875,143.24486657311735 309.28125,146.94792981333936 309.865625,158.4666167931586 310.45000000000005,146.4971306014907 311.034375,158.5961478309587 311.61875,143.4871680752444 312.203125,142.78966063649705 312.7875,143.47659498210035 313.371875,144.05636969182186 313.95624999999995,143.87209806076078 314.540625,145.0107046234265 315.125,164.41355113273852 315.70937499999997,173.84920995859574 316.29375,145.78821446284724 316.878125,141.9349353374621 317.46250000000003,142.86857519996315 318.046875,161.36923457708872 318.63125,162.56624682925354 319.215625,170.15643874643797 319.8,143.8069217817773 320.384375,143.9586071891638 320.96875,143.51086552370163 321.553125,144.4181149475439 322.1375,144.27037067412925 322.721875,144.01056576659155 323.30625,143.59851942213655 323.890625,143.66526267190716 324.47499999999997,143.60238534381804 325.059375,143.96927920839664 325.64375,144.16596647476524 326.22812500000003,144.44153972116302 326.8125,144.67006289097836 327.396875,144.6777122697896 327.98125,144.54498998098546 328.565625,144.45447267599542 329.15,144.22294688487773 329.734375,144.06590586540878 330.31875,143.8518116194004 330.903125,143.72167109172344 331.4875,143.64526364791433 332.071875,143.4003413845184 332.65625,143.1223807180508 333.24062499999997,143.14032742063716 333.825,143.34345006278906 334.409375,143.54208386554257 334.99375000000003,144.19249932952246 335.578125,144.56722539722875 336.1625,144.75268899391267 336.746875,144.88110115286676 337.33125,144.78408412464339 337.915625,144.9695372217725 338.5,145.12762511099635 339.084375,145.1874290882397 339.66875,145.23655500872067 340.253125,145.37280254242646 340.8375,145.44870631062412 341.421875,145.44422904795488 342.00624999999997,145.50351964705908 342.590625,145.5706475032439 343.175,145.52189216711986 343.75937500000003,145.66778718444033 344.34375,145.56299460940676 344.928125,145.37470451981557 345.5125,145.0600251384012 346.096875,143.16180431582848 346.68125,145.54912711840797 347.265625,149.132190994798 347.85,161.56887958463085 348.434375,144.4261436141721 349.01875,144.5541400675487 349.603125,148.0837646398295 350.1875,144.51785304458465 350.77187499999997,144.3776986731468 351.35625,144.28605372819547 351.940625,144.31964853855482 352.52500000000003,144.35512822675577 353.109375,144.38888037928749 353.69375,144.20824756397118 354.278125,144.51550644977223 354.8625,144.5987170325693 355.446875,158.11569024320954 356.03125,151.39287185930553 356.615625,163.681225701399 357.2,142.63828144301726 357.784375,142.77027651608208 358.36875,143.46542107263087 358.953125,143.09531819737677 359.53749999999997,143.5091369659089 360.121875,144.36329939184736 360.70625,144.368508741677 361.29062500000003,144.53927991379567 361.875,144.87042423328325 362.459375,146.64046229639192 363.04375,155.33670635532656 363.628125,152.26612116267785 364.2125,154.52610823058455 364.796875,156.46298857109434 365.38125,165.19372260498216 365.965625,171.80941418433002 366.55,154.46350277129892 367.134375,164.4627327694544 367.71875,143.45302270480158 368.30312499999997,143.064415498566 368.8875,167.86521605155906 369.471875,168.29227816394194 370.05625000000003,168.18769517496003 370.640625,168.42202734135174 371.225,168.66363406644547 371.809375,168.86491121062457 372.39375,167.7519220167106 372.978125,170.56092713846124 373.5625,168.69156757006886 374.146875,169.0775779943733 374.73125,168.33693310383433 375.315625,168.44111748758337 375.9,168.42494729164468 376.484375,168.2970622266724 377.06874999999997,168.0809883790162 377.653125,167.9555427134689 378.2375,167.95894903499337 378.82187500000003,168.07495106572824 379.40625,168.23548992557465 379.990625,168.26232822321515 380.575,168.2646545163896 381.159375,168.13100945456785 381.74375,167.96937876437488 382.328125,171.8533418478045 382.9125,167.65527192501972 383.496875,168.15047805152312 384.08125,168.5377524344341 384.665625,166.6869649870813 385.25,178.5438834775813 385.83437499999997,169.26683860353387 386.41875,169.54993673917846 387.003125,170.01317217914635 387.58750000000003,169.57084697517047 388.171875,169.13354820814953 388.75625,171.67732048301997 389.340625,169.2157429774151 389.925,169.29136069676446 390.509375,170.80068468595942 391.09375,173.53093233956727 391.678125,169.0892332482448 392.2625,169.1018187729808 392.846875,169.11883489582377 393.43125,169.16514380761214 394.015625,169.12253709624912 394.59999999999997,169.0512015550339 395.184375,171.75865795324785 395.76875,169.11891531415486 396.35312500000003,168.85309030634073 396.9375,169.77677812966039 397.521875,169.6089572612172 398.10625,169.71730120574858 398.690625,169.6300100629168 399.275,169.6053931852438 399.859375,169.49044665119158 400.44375,169.3366699649374 401.028125,169.16539349793456 401.6125,169.51082846433204 402.196875,169.5158856114147 402.78125,169.51184391170722 403.36562499999997,169.76208768636144 403.95,169.85190062407565 404.534375,170.0468986887536 405.11875000000003,169.69693145479766 405.703125,169.8775716535618 406.2875,169.94053542062144 406.871875,169.95752993094592 407.45625,169.93426518997674 408.040625,169.98304046151895 408.625,169.99088135809583 409.209375,170.05243886001222 409.79375,170.17741984837642 410.378125,170.28009623135165 410.9625,170.34492086249466 411.546875,170.37740872362883 412.13124999999997,170.50246387747342 412.715625,170.5499869481666 413.3,170.36813482701274 413.88437500000003,174.22723403331312 414.46875,173.26612665522882 415.053125,175.92408775112207 415.6375,170.77951057210663 416.221875,171.66161922655894 416.80625,174.21713784311822 417.390625,176.95452956483743 417.975,171.90369922918916 418.559375,172.34225804737318 419.14375,172.6159697944305 419.728125,173.8728164722276 420.3125,176.39167933337285 420.89687499999997,185.71194038547975 421.48125,170.2356581015593 422.065625,170.82677745243797 422.65000000000003,170.69608030529852 423.234375,170.56581000153227 423.81875,169.00090980454772 424.403125,171.99248832965745 424.9875,174.84550793855615 425.571875,170.32709038251352 426.15625,170.2262320494585 426.740625,170.19528031245326 427.325,170.04864425224267 427.909375,169.99220242803818 428.49375,169.98584518485626 429.078125,169.91991696790672 429.66249999999997,169.9624009225932 430.246875,169.90898128906815 430.83125,169.8885165061285 431.41562500000003,169.8302050596663 432.0,169.71912404048797 432.584375,169.56489716309488 433.16875,169.37398068317273 433.753125,169.18231375116983 434.3375,168.94298963978588 434.921875,168.67150391796747 435.50625,168.48684310227372 436.090625,168.26578813794617 436.675,168.1225830351125 437.259375,167.8642278538183 437.84375,167.7681156279721 438.42812499999997,167.75506743741272 439.0125,167.85376230851443 439.596875,167.815389295763 440.18125000000003,167.85067180367076 440.765625,167.81407561599468 441.35,167.78279697315463 441.934375,167.76059244170193 442.51875,167.97567549305225 443.103125,168.59724320361187 443.6875,169.75931288952282 444.271875,173.56270667352612 444.85625,167.50431046160986 445.440625,167.5254441968575 446.025,167.5353242569684 446.609375,167.47717486768357 447.19374999999997,167.3805657680143 447.778125,167.44087910678786 448.3625,167.38289164245543 448.94687500000003,167.4151547263106 449.53125,167.49263390719375 450.115625,167.55493256009518 450.7,167.58693238629127 451.284375,168.26683452235392 451.86875,171.08285170982558 452.453125,167.68807031892368 453.0375,167.80816099960407 453.621875,166.8972294001195 454.20625,175.1479761266052 454.790625,168.55305827158224 455.375,173.5269435844491 455.95937499999997,168.07429225514826 456.54375,168.10204343996804 457.128125,167.8943120494138 457.71250000000003,167.9457869299514 458.296875,168.03601427129448 458.88125,168.0636632418278 459.465625,168.15508266698285 460.05,168.22313602590486 460.634375,168.2897491799267 461.21875,168.3201546148327 461.803125,168.37462439809718 462.3875,168.38007906566557 462.971875,168.36494082021596 463.55625,168.2537164703088 464.140625,168.16867769288095 464.72499999999997,168.1133219739132 465.309375,168.0915484931009 465.89375,168.04653257984603 466.47812500000003,167.8985025892026 467.0625,167.7288170659358 467.646875,167.32013429335817 468.23125,166.8055390820938 468.815625,166.1681073152468 469.4,165.35980446476427 469.984375,166.09054007132286 470.56875,174.1064150313141 471.153125,174.8787688305811 471.7375,165.05541738048987 472.321875,165.0586020660149 472.90625,165.95326595087474 473.49062499999997,170.02075174125306 474.075,165.58754019741505 474.659375,165.45061932592745 475.24375000000003,165.37409033591587 475.828125,166.660563486225 476.4125,169.13773651259436 476.996875,172.58272532984364 477.58125,171.59743355571013 478.165625,171.63081577815194 478.75,180.03435434167065 479.334375,165.0949680348743 479.91875,168.8165107862172 480.503125,165.45098909529645 481.0875,165.14618223314608 481.671875,168.86800558066264 482.25624999999997,173.72127759231398 482.840625,175.42022062716958 483.425,179.08712102791608 484.00937500000003,165.33450291824943 484.59375,165.55886709993368 485.178125,165.46504678944817 485.7625,165.54242343169284 486.346875,165.76076827994336 486.93125,166.03188054972202 487.515625,167.24077214320835 488.1,170.38865911794434 488.684375,174.04409540346984 489.26875,169.50180588117487 489.853125,173.90923503713248 490.4375,178.08591812410017 491.02187499999997,172.46797461850704 491.60625,173.3540613517912 492.190625,173.8373401643084 492.77500000000003,179.79813303361755 493.359375,183.61433032264466 493.94375,165.15647790085953 494.528125,164.56243452162641 495.1125,165.16953253265282 495.696875,165.2436029121671 496.28125,176.78960236930598 496.865625,167.56584887221658 497.45,164.86041868711283 498.034375,164.9045237799297 498.61875,165.15172545423385 499.203125,166.25587582278885 499.78749999999997,166.55564953182676 500.371875,167.07190507405414 500.95625,166.70891474767743 501.54062500000003,177.31445712130335 502.125,173.22916057883026 502.709375,176.89181631499207 503.29375,166.819865613122 503.878125,168.9710523171447 504.4625,174.86017355637114 505.046875,182.83818927322972 505.63125,164.96852987522198 506.215625,165.34594892702827 506.8,165.31854354331807 507.384375,165.5599991715839 507.96875,166.1367772021609 508.55312499999997,169.68602793520745 509.1375,165.9093087985332 509.721875,166.10135343559426 510.30625000000003,166.3235974445676 510.890625,166.63298504943106 511.475,166.79702910281185 512.059375,166.6759444003422 512.64375,168.04387849866322 513.228125,166.78718126823378 513.8125,167.14979855466237 514.396875,170.46357410809316 514.98125,170.63301393822925 515.565625,166.81138358549765 516.15,167.35285835879031 516.734375,166.87786341446935 517.3187499999999,166.7698224603188 517.903125,166.78662006656867 518.4875,166.75481748300035 519.0718750000001,166.78777538429927 519.65625,165.14733397482485 520.240625,165.65033568912227 520.825,166.69720252020295 521.409375,168.1279386610476 521.99375,171.3592200988093 522.578125,172.55079808101948 523.1625,169.27356077019093 523.746875,165.5832312900185 524.33125,167.82873111291832 524.915625,165.92695337929277 525.5,166.80209246576354 526.0843749999999,172.3704591172259 526.66875,176.11318989704637 527.253125,167.11783403091593 527.8375000000001,165.0613997672178 528.421875,167.88829374411796 529.00625,167.06880985044575 529.590625,167.0810365938259 530.175,167.09362903484023 530.759375,167.12314887937407 531.34375,167.119394262432 531.928125,164.92125347509062 532.5125,164.33309801970958 533.096875,164.67475210138178 533.68125,165.0937070854214 534.265625,167.3246626017816 534.8499999999999,171.52250931356198 535.434375,175.58023572630316 536.01875,164.45184843367775 536.6031250000001,164.46061992299633 537.1875,164.8353070293736 537.771875,165.51545361530435 538.35625,167.20653211226158 538.940625,173.0167137509995 539.525,167.8077452223115 540.109375,167.7942311844701 540.69375,167.777805837273 541.278125,167.76817156161758 541.8625,168.03646492661292 542.446875,168.31761262173325 543.03125,168.06139548857212 543.6156249999999,167.73708295589526 544.2,167.44413036213834 544.784375,167.24786496808943 545.3687500000001,167.24200169754852 545.953125,167.35930009094614 546.5375,167.33805208151364 547.121875,167.07849706030999 547.70625,167.10671122853904 548.290625,166.61138842317382 548.875,166.77044672191053 549.459375,166.36077970506295 550.04375,165.82886241556278 550.628125,166.66479275388414 551.2125,174.68094521329337 551.796875,166.56283450188107 552.3812499999999,166.6623280456042 552.965625,167.0162085763814 553.55,166.91909491191836 554.1343750000001,166.75670469319383 554.71875,166.62923143735208 555.303125,166.5833778753581 555.8875,166.64234543263103 556.471875,166.5421749773471 557.05625,166.61288628351096 557.640625,166.60151382379053 558.225,166.6648790574202 558.809375,166.7332709623213 559.39375,166.8072901356939 559.978125,165.44844400374058 560.5625,171.23528339807882 561.1468749999999,166.97794792146829 561.73125,166.98189192258434 562.315625,167.0121897650555 562.9000000000001,167.14395790660467 563.484375,167.23575502200924 564.06875,167.22570638845366 564.653125,167.11522517451704 565.2375,167.16859818744808 565.821875,167.09424933610103 566.40625,167.050280325559 566.990625,167.6000906288304 567.575,170.83051109150864 568.159375,166.48363196887772 568.74375,166.77297483215682 569.328125,166.70449677248203 569.9124999999999,167.2142996591578 570.496875,167.2102113836518 571.08125,167.15074479968604 571.665625,167.6288453281993 572.25,167.41210854223507 572.834375,167.89381255145383 573.4187499999999,168.17140464582297 574.003125,168.62683522531182 574.5875,169.0562807905805 575.171875,169.81698558326676 575.75625,170.26291969835904 576.340625,170.86653606595857 576.9250000000001,171.7117516924517 577.509375,173.27208668962714 578.09375,177.40362814478314 578.678125,166.7004677989597 579.2625,168.64452350835057 579.846875,166.0816200523622 580.43125,167.49546859227752 581.015625,167.92586819469744 581.6,168.55666577155935 582.1843749999999,168.79406168956012 582.76875,169.24943792867572 583.353125,170.37028064165224 583.9375,171.215197262398 584.521875,172.84073512703267 585.10625,176.54497543568337 585.6906250000001,168.21314665920966 586.275,168.25954043087495 586.859375,168.28388308539755 587.44375,168.321029537689 588.028125,168.3017841739133 588.6125,165.741523453703 589.196875,168.2634391437231 589.78125,168.40180899015272 590.365625,168.34190323576746 590.9499999999999,168.34691538719179 591.534375,168.42141583725248 592.11875,168.39068995752245 592.703125,168.38460606336565 593.2875,168.36263683125338 593.871875,166.20812086135948 594.4562500000001,164.85754965592844 595.040625,166.75830698230592 595.625,170.1570392994077 596.209375,168.2191803408969 596.79375,168.205141085913 597.378125,168.1942371138061 597.9625,168.11868167548053 598.546875,168.07052407715176 599.13125,168.00142048973953 599.7156249999999,167.95464394026888 600.3,168.08743505925295 600.884375,168.11280048557919 601.46875,168.05926747480726 602.053125,167.97195871943467 602.6375,167.9384158867873 603.2218750000001,167.88173400935244 603.80625,167.92063246275967 604.390625,168.2162317301329 604.975,168.22925575047742 605.559375,168.15578731693222 606.14375,168.22696728581238 606.728125,168.3178688213361 607.3125,164.06838104991112 607.896875,167.33546712304263 608.4812499999999,168.00762105555017 609.065625,167.98624161676582 609.65,163.56361971833326 610.234375,168.17019941218786 610.81875,167.83813433239698 611.403125,167.8286707083313 611.9875000000001,163.8131167257299 612.571875,170.5663414740739 613.15625,163.15146402721658 613.740625,168.49276256579992 614.325,167.2450645123035 614.909375,167.33879967963546 615.49375,167.38940597938725 616.078125,167.43092953669515 616.6625,167.4202058161039 617.2468749999999,167.506125939407 617.83125,164.61073622277218 618.415625,165.0761573808656 619.0,165.3202615506446 619.584375,165.36742185968015 620.16875,165.50149638915758 620.7531250000001,165.6011657325074 621.3375,165.7836546656872 621.921875,165.36828999136253 622.50625,165.47385597471094 623.090625,165.59755497235824 623.675,165.94785371683525 624.259375,166.20087812639045 624.84375,166.39526986662253 625.428125,166.72784862239502 626.0124999999999,167.04876315679186 626.596875,167.36202647812559 627.18125,168.14362925538884 627.765625,169.0360638020694 628.35,170.40697710985268 628.934375,173.91432457521285 629.5187500000001,165.8291956788958 630.103125,168.9652798158129 630.6875,165.5014612879002 631.271875,168.70480394107975 631.85625,168.83226260031458 632.440625,168.99230224800957 633.025,168.95344223174993 633.609375,169.1284249130223 634.19375,168.72903989784618 634.7781249999999,168.82498645297125 635.3625,168.9170876947376 635.946875,165.40007777916014 636.53125,168.51605093124004 637.115625,168.60845048808125 637.7,168.69305059772068 638.2843750000001,168.7812631717181 638.86875,168.96018734683773 639.453125,168.99906114411968 640.0375,169.17314831325086 640.621875,169.26377004078518 641.20625,168.7580659778106 641.790625,168.98756645801424 642.375,169.20722757373122 642.959375,169.3893187024832 643.5437499999999,169.25759714463908 644.128125,169.48510058017547 644.7125,169.46762536606616 645.296875,169.64066051632724 645.88125,169.71280050494317 646.465625,169.8473057339391 647.0500000000001,169.90904512033524 647.634375,169.99082752887387 648.21875,170.0531932565799 648.803125,169.9572821033878 649.3875,165.68688726320028 649.971875,168.83792801084752 650.55625,169.92280912104806 651.140625,169.8351559094678 651.725,169.72510238482374 652.3093749999999,169.6032147710255 652.89375,169.63245621679198 653.478125,169.55846020392823 654.0625,169.48047752212102 654.646875,169.40267986884368 655.23125,169.33391278872978 655.8156250000001,169.27814479610032 656.4,169.21831061130104 656.984375,169.16464655281882 657.56875,169.112998077173 658.153125,169.07231494083578 658.7375,168.92052667144696 659.321875,168.87951686810771 659.90625,168.8279935312377 660.490625,168.79706957741035 661.0749999999999,168.7963677661998 661.659375,168.76180336775556 662.24375,168.75188914960637 662.828125,168.8037971517267 663.4125,168.88631896278923 663.996875,168.96339448896956 664.5812500000001,169.1352120372422 665.165625,169.36296072985937 665.75,169.67167813889043 666.334375,170.05653390319154 666.91875,170.52115726268204 667.503125,171.1374742198376 668.0875,171.8524200348534 668.671875,172.8599935498989 669.25625,174.58400145911818 669.8406249999999,177.82039541965025 670.425,174.61711091095 671.009375,175.3997437625789 671.59375,176.5429369321887 672.178125,178.0890945477797 672.7625,181.4245539820173 673.3468750000001,175.811952270747 673.93125,168.68311999433806 674.515625,170.33693588657206 675.1,175.20179402902838 675.684375,178.51816604810676 676.26875,167.41183822027986 676.853125,170.97468139303908 677.4375,167.03436437346022 678.021875,166.83197029313942 678.6062499999999,168.83807024546417 679.190625,171.74298419050947 679.775,166.87203146064883 680.359375,167.49761766472207 680.94375,171.39357884660538 681.528125,166.87882341557753 682.1125000000001,169.78037585926842 682.696875,171.82923512059358 683.28125,166.63253658409434 683.865625,166.5622227270343 684.45,166.5233565240712 685.034375,166.5090005853881 685.61875,166.5047938360281 686.203125,166.2502082103017 686.7875,169.76089258416326 687.3718749999999,170.00804980224194 687.95625,170.04763760145005 688.540625,170.0148561006331 689.125,170.01076406172297 689.709375,170.1905366374977 690.29375,170.25128152290773 690.8781250000001,170.18509893386408 691.4625,170.8665275761874 692.046875,168.2675500097883 692.63125,167.60165694625942 693.215625,168.80222459136803 693.8,171.85335190491983 694.384375,166.10050448517694 694.96875,168.92830021567838 695.553125,167.22661723422834 696.1374999999999,167.36154686767958 696.721875,167.42069020624348 697.30625,167.44650148672966 697.890625,167.50224443096315 698.475,167.59936164082808 699.059375,167.76232516405327 699.6437500000001,168.03018711232266 700.228125,168.3253575715523 700.8125,168.93016390907772 701.396875,169.98799967250747 701.98125,170.9688385966972 702.565625,172.34828333303406 703.15,175.4410047274141 703.734375,169.4278271183252 704.31875,169.5046458861563 704.9031249999999,169.57189505021904 705.4875,169.49218535001316 706.071875,169.5525550619535 706.65625,169.55592703777015 707.240625,169.6352426802806 707.825,169.69850861327723 708.4093750000001,169.73763488542122 708.99375,169.9401157936249 709.578125,169.8083449534434 710.1625,169.85994332266944 710.746875,169.915304565571 711.33125,169.98208999143037 711.915625,170.03485673595293 712.5,170.25226312473296 713.084375,170.33529457692444 713.6687499999999,170.40400718394102 714.253125,170.33618013216363 714.8375,170.37207654276654 715.421875,170.44619794839664 716.00625,170.4880921591378 716.590625,170.52032468745284 717.1750000000001,170.5566580459365 717.759375,170.56165536346325 718.34375,170.57502718457908 718.928125,170.57960611281442 719.5125,170.56400447229237 720.096875,170.53824806581193 720.68125,170.30437562722344 721.265625,170.12815469194567 721.85,169.85315675316022 722.4343749999999,169.42246038605413 723.01875,169.22507934279375 723.603125,168.49886507049527 724.1875,167.58354312130172 724.771875,166.4476220738017 725.35625,166.60588495665223 725.9406250000001,166.80127046876743 726.525,167.37748036042706 727.109375,167.73498371550338 727.69375,168.1551983887853 728.278125,169.04898492362128 728.8625,170.2823201592402 729.446875,173.97411603528653 730.03125,169.75835668336276 730.615625,169.90112589522641 731.1999999999999,169.99999361481616 731.784375,170.12001544500475 732.36875,170.2450244837861 732.953125,170.35585091903667 733.5375,170.45203351321592 734.121875,170.57667375481336 734.7062500000001,170.558471335393 735.290625,170.68461865168084 735.875,170.83180891509556 736.459375,170.9624802995525 737.04375,171.07204862894582 737.628125,171.2024569406346 738.2125,171.26018824240978 738.796875,171.38226809996831 739.38125,171.51734463740314 739.9656249999999,171.66121081126818 740.55,171.50960540506037 741.134375,171.51988439806348 741.71875,171.3645161981444 742.303125,171.2883999880379 742.8875,171.17217761883947 743.4718750000001,171.31591667176977 744.05625,171.2340325591683 744.640625,171.268883058143 745.225,171.32013359559232 745.809375,171.45161942492336 746.39375,171.58079354936564 746.978125,171.543675339229 747.5625,171.31527554303457 748.146875,171.0904998406926 748.7312499999999,170.80188469184887 749.315625,170.50665083684663 749.9,170.21605314953777 750.484375,169.9507651192302 751.06875,169.7428010230015 751.653125,169.19821525343318 752.2375000000001,169.56062181057104 752.821875,169.61639388942822 753.40625,169.69578441978973 753.990625,169.76215579091217 754.575,169.81683367172184 755.159375,169.88250318670396 755.74375,167.84842783452154 756.328125,170.68643884279336 756.9125,169.7000424797141 757.4968749999999,169.81712909587878 758.08125,169.91186670697348 758.665625,170.02275303735973 759.25,170.02903088243926 759.834375,170.09459795193925 760.41875,170.13998219640416 761.0031250000001,170.1800236375908 761.5875,170.2309301011655 762.171875,170.24638959508476 762.75625,170.22536905130193 763.340625,170.20044878151546 763.925,170.21370731438614 764.509375,170.42481129864007 765.09375,169.92842143444557 765.678125,169.93384448493703 766.2624999999999,168.60974803483933 766.846875,168.73923369219045 767.43125,168.84100583370292 768.015625,168.96941868979115 768.6,169.09276976574836 769.184375,169.20444852804985 769.7687500000001,169.24098634957727 770.353125,169.39371298031767 770.9375,169.50492003463592 771.521875,169.57568042373805 772.10625,169.6232364302297 772.690625,169.60383613648668 773.275,169.56632780435942 773.859375,169.45766742030594 774.44375,169.0168486785418 775.0281249999999,168.95747792193012 775.6125,169.00074876323868 776.196875,169.01968562027906 776.78125,169.34181049327984 777.365625,174.44558624628556 777.95,169.5005192406594 778.5343750000001,169.20518017970647 779.11875,169.24262048871603 779.703125,169.1867342471113 780.2875,169.19326185378617 780.871875,169.12300894657835 781.45625,169.12472766561532 782.040625,169.2140166992853 782.625,169.31857271419764 783.209375,169.48321448457423 783.7937499999999,169.5517255915487 784.378125,169.61074227337838 784.9625,169.8090411649163 785.546875,169.6179377165726 786.13125,169.7044483270215 786.715625,170.82011037582225 787.3000000000001,173.61332929967944 787.884375,173.63638422363772 788.46875,169.03982408738122 789.053125,169.19710754058278 789.6375,169.32634499955017 790.221875,169.44341636936502 790.80625,169.432070242586 791.390625,169.5284380383697 791.975,169.7445610803635 792.5593749999999,169.92242680974735 793.14375,170.08701843881525 793.728125,170.27146295767025 794.3125,170.45753083575698 794.896875,170.7880151056127 795.48125,171.07640778032163 796.0656250000001,171.36255262979918 796.65,171.54223169068374 797.234375,171.77525474029866 797.81875,172.04721472116557 798.403125,172.62094742440397 798.9875,173.2597494543649 799.571875,173.6046481441912 800.15625,174.12081432589582 800.740625,176.54144725315248 801.3249999999999,180.383435227577 801.909375,167.1147659014557 802.49375,168.03406975992638 803.078125,175.07581815949007 803.6625,166.37949393085285 804.246875,165.3247173657826 804.8312500000001,166.4930029995145 805.415625,169.5714360002186 806.0,166.4818445524132 806.584375,166.46623514333646 807.16875,166.35639450291904 807.753125,166.27259621043882 808.3375,166.23496770455037 808.921875,166.17640904959873 809.50625,170.16652226941846 810.0906249999999,167.6047013003373 810.675,168.44316055424022 811.259375,175.62779167607573 811.84375,176.6930734223577 812.428125,180.12416755921544 813.0125,165.82539837343944 813.5968750000001,165.87411208116285 814.18125,166.04494198534357 814.765625,166.0858870621564 815.35,166.19090757579806 815.934375,166.24194533402823 816.51875,166.6802066461366 817.103125,166.10813497313518 817.6875,166.10666282092916 818.271875,166.11451975210264 818.8562499999999,165.8199662385715 819.440625,166.0319851766035 820.025,165.98202843932572 820.609375,165.8934890026747 821.19375,165.81297271416005 821.778125,166.00359457493323 822.3625000000001,166.00536837196654 822.946875,165.99746218811694 823.53125,166.01681936809646 824.115625,166.03110067362792 824.7,166.14052204109473 825.284375,166.09422492874376 825.86875,166.16193354419204 826.453125,166.17477798280976 827.0375,166.7639223261237 827.6218749999999,166.3114803263541 828.20625,166.30101532833697 828.790625,167.54886280482822 829.375,173.36635177360185 829.959375,165.5761718489166 830.54375,165.59318906483372 831.1281250000001,165.7820359282095 831.7125,165.9447614909009 832.296875,166.09556307189195 832.88125,166.45568834717466 833.465625,170.06686700243085 834.05,165.97060755751443 834.634375,165.9505036871064 835.21875,166.00654356911568 835.803125,166.03278524529077 836.3874999999999,166.22196732819253 836.971875,166.37232607224155 837.55625,166.6819022590844 838.140625,166.25555360740432 838.725,166.232793866113 839.309375,166.0995383069394 839.8937500000001,165.96240673602983 840.478125,165.8765885621385 841.0625,166.047547229272 841.646875,166.24276102608945 842.23125,166.154022603117 842.815625,166.54214730815926 843.4,166.6323886438905 843.984375,166.77345495862022 844.56875,166.8996145336161 845.1531249999999,166.98366392717077 845.7375,167.01521135071863 846.321875,167.11261958302737 846.90625,167.30955410154058 847.490625,167.50839682027993 848.075,167.7492463799182 848.6593750000001,168.03533737974556 849.24375,168.27367098650979 849.828125,169.18461395226328 850.4125,169.9247479652544 850.996875,170.57846919913214 851.58125,170.8629862195817 852.165625,171.8661353431422 852.75,172.6826679309935 853.334375,179.11737646912158 853.9187499999999,166.95892405501027 854.503125,167.8203838692299 855.0875,167.0698106685739 855.671875,167.1932612874007 856.25625,167.2440318538304 856.840625,167.00180716504258 857.4250000000001,167.2584251461248 858.009375,167.5426978293458 858.59375,167.75784974355187 859.178125,167.92576635941634 859.7625,168.08032062299043 860.346875,168.18081016719083 860.93125,168.23113968877087 861.515625,168.3538277130524 862.1,168.35386010527623 862.6843749999999,168.44849155862917 863.26875,168.47791258999018 863.853125,168.4295372245193 864.4375,168.40747387180178 865.021875,168.36141444186464 865.60625,168.39063226941443 866.1906250000001,168.40699261303334 866.775,168.37290351978078 867.359375,168.33113363106173 867.94375,168.27936028942753 868.528125,167.4240570858256 869.1125,167.60446762030045 869.696875,168.66336745716447 870.28125,172.61359745544388 870.865625,168.2226271725292 871.4499999999999,168.1805628366298 872.034375,168.29901939213946 872.61875,168.38912067606657 873.203125,168.44367085032127 873.7875,168.2781820489681 874.371875,168.54179238517992 874.9562500000001,168.49060591783845 875.540625,168.56953953438313 876.125,168.6183674112337 876.709375,168.65827701233616 877.29375,168.66291426354644 877.878125,168.70363134712863 878.4625,168.70021280961618 879.046875,168.72064625198598 879.63125,169.70954743005416 880.2156249999999,168.39192501701388 880.8,168.42049374129334 881.384375,168.4500340537239 881.96875,168.27888253906758 882.553125,168.29887679494894 883.1375,168.33292931755892 883.7218750000001,168.3426125276538 884.30625,168.23217362949 884.890625,168.2123271515597 885.475,168.1721610190184 886.059375,168.031782680608 886.64375,167.9704829065621 887.228125,168.84369989643258 887.8125,168.39870609529393 888.396875,167.3358085013832 888.9812499999999,169.82248426695375 889.565625,168.4697812790938 890.15,168.63689173703088 890.734375,168.73445930825417 891.31875,168.83532104256153 891.903125,168.898260657515 892.4875000000001,169.00847360409293 893.071875,168.98022999424512 893.65625,169.06513723905286 894.240625,169.14394125803264 894.825,169.21061060044642 895.409375,169.26599726295638 895.99375,169.36687900664936 896.578125,169.4411126808928 897.1625,169.4882191096368 897.7468749999999,169.5211561654123 898.33125,169.47133471019058 898.915625,169.44075641585079 899.5,169.5535438695814 900.084375,169.6139745598015 900.66875,169.6653668372575 901.2531250000001,169.6364987442538 901.8375,169.63473172105498 902.421875,169.7334323873137 903.00625,169.51853920515384 903.590625,170.20145654324577 904.175,170.41235497663695 904.759375,170.45720916389539 905.34375,170.23115663328096 905.928125,170.0681640630974 906.5124999999999,170.0254984111101 907.096875,169.83062126592804 907.68125,169.7311303480593 908.265625,169.59015665220014 908.85,169.53540474769608 909.434375,169.43966787496123 910.0187500000001,169.40053102556945 910.603125,169.36856267944754 911.1875,169.34091114338997 911.771875,169.3599861616077 912.35625,169.36079503768195 912.940625,169.44034203152103 913.525,169.51309942865018 914.109375,169.58626401504142 914.69375,169.6829568704027 915.2781249999999,169.69365474436205 915.8625,169.62646992012884 916.446875,169.72647716644363 917.03125,169.8407638675733 917.615625,169.88640863284903 918.2,169.96301525526684 918.7843750000001,170.00923812197342 919.36875,170.07328645774584 919.953125,170.08966813339936 920.5375,170.11928571345956 921.121875,170.1596613119208 921.70625,170.21141871220442 922.290625,170.33658003561814 922.875,170.32501865036886 923.459375,170.3208277080298 924.0437499999999,170.29661335665062 924.628125,170.2215943483819 925.2125,170.20185916745226 925.796875,170.14254537234663 926.38125,170.1089712340349 926.965625,170.0979500707292 927.5500000000001,170.15476338536013 928.134375,170.16895024949167 928.71875,170.21124498251172 929.303125,170.20611247437483 929.8875,170.24570154321614 930.471875,170.2589856773284 931.05625,170.26132207900548 931.640625,170.23584313761347 932.225,170.3015539613567 932.8093749999999,170.34201089072246 933.39375,170.37549243303692 933.978125,170.39367081092433 934.5625,170.4295458373871 935.146875,170.36204903653135 935.73125,170.3729017709424 936.3156250000001,167.77070123622565 936.9,169.25159838220998 937.484375,169.34528761535225 938.06875,169.22589516733836 938.653125,169.146660627058 939.2375,169.11639428497614 939.821875,167.3116252296931 940.40625,169.46571896318417 940.990625,169.51595659637977 941.5749999999999,169.6065200860831 942.159375,169.71478748217405 942.74375,169.85190045670342 943.328125,169.97330096617722 943.9125,167.60206469324595 944.496875,167.82723913365115 945.0812500000001,167.05069735178384 945.665625,165.79659649542043 946.25,165.8814143832335 946.834375,166.33168867177477 947.41875,167.0119668641674 948.003125,167.89141274272055 948.5875,169.03308225875102 949.171875,170.51487661571755 949.75625,172.36590878205138 950.3406249999999,177.60213789307116 950.925,186.8455690659044 951.509375,188.5562213907398 952.09375,189.94898044104832 952.678125,192.3448275862069 953.2625,117.31299792907673 953.8468750000001,151.12139093813667 954.43125,137.40396475332162 955.015625,158.37478126208077 955.6,112.03114019569725 956.184375,113.74730654072741 956.76875,115.29577923452885 957.353125,125.67325483168787 957.9375,135.20710954936118 958.521875,149.60615721804749 959.1062499999999,114.94871318582626 959.690625,115.40545653494281 960.275,115.74118399797099 960.859375,109.66884037924935 961.44375,128.67910181347895 962.028125,71.65517241379311 962.6125000000001,145.80449649247427 963.196875,114.8621149590698 963.78125,115.10404111634524 964.365625,115.25478759712082 964.95,115.49454145093534 965.534375,115.78758908980089 966.11875,115.99261286459813 966.703125,116.38292191284535 967.2875,116.66299435671525 967.8718749999999,127.09575959403077 968.45625,134.02452199574714 969.040625,145.1286046496549 969.625,157.77355305331105 970.209375,120.05426142921712 970.79375,121.3292218413786 971.3781250000001,122.80120274073764 971.9625,123.95596566752027 972.546875,131.47894265743162 973.13125,125.86594406670592 973.715625,125.16474684204336 974.3,120.9296517786672 974.884375,130.52144007670955 975.46875,144.66240732230563 976.053125,119.14675106231391 976.6374999999999,120.39207093141212 977.221875,121.46064599000938 977.80625,122.0018120509834 978.390625,123.22077292854424 978.975,120.90433314925917 979.559375,122.26560728690487 980.1437500000001,123.68816468832382 980.728125,125.08609640316067 981.3125,125.58319202112072 981.896875,126.42161057908005 982.48125,127.96195325377286 983.065625,129.4585886292291 983.65,130.99605136276622 984.234375,132.12696955926427 984.81875,133.38698514495286 985.4031249999999,136.37766706380526 985.9875,150.93892253576303 986.571875,140.63802330305415 987.15625,170.80844869147245 987.740625,131.24423244637114 988.325,131.59720260718507 988.9093750000001,132.13796188453642 989.49375,132.21967632468483 990.078125,148.6771530689848 990.6625,131.7156227018941 991.246875,131.66931610490474 991.83125,126.9098481566587 992.415625,130.43499022810437 993.0,135.7995214988486 993.584375,152.30847350477387 994.1687499999999,131.32344727433838 994.753125,138.70191446960993 995.3375,150.24338324914294 995.921875,129.71144871685215 996.50625,130.0515074668985 997.090625,130.31326904937436 997.6750000000001,130.5322926249857 998.259375,130.84757286779177 998.84375,131.30814468783444 999.428125,129.28911652734064 1000.0125,130.77765077086235 1000.596875,161.59682402159038 1001.18125,134.1121938025364 1001.765625,134.14793553186206 1002.35,130.31306371233677 1002.9343749999999,132.55296892345007 1003.51875,134.15084373730548 1004.103125,137.36535307679185 1004.6875,141.39518187876618 1005.271875,147.35705819529625 1005.85625,158.11145292838188 1006.4406250000001,135.6773269578301 1007.025,134.52018006415113 1007.609375,133.6768251673244 1008.19375,133.07670520225278 1008.778125,133.48576256943159 1009.3625,133.8912310345176 1009.946875,133.3790125406473 1010.53125,132.9476156313678 1011.115625,132.61858112001138 1011.6999999999999,131.81892221661352 1012.284375,131.40060654072627 1012.86875,131.0174741516446 1013.453125,138.88251869654508 1014.0375,131.4729684831246 1014.621875,131.23995365912373 1015.2062500000001,131.00289632757546 1015.790625,130.87578585005133 1016.375,130.74978802651722 1016.959375,130.62685517739075 1017.54375,130.41359550493644 1018.128125,130.3193988576533 1018.7125,129.9733623943662 1019.296875,129.90368557111773 1019.88125,129.82725923445668 1020.4656249999999,129.84314139348209 1021.05,129.90347814226084 1021.634375,129.9158852507556 1022.21875,129.8758467225907 1022.803125,129.99899112175717 1023.3875,130.01699310592994 1023.9718750000001,130.0750265282233 1024.55625,130.20469293123068 1025.140625,130.27430756776045 1025.725,129.4399048519158 1026.309375,129.507154035564 1026.89375,129.79816212255525 1027.478125,130.34156343194167 1028.0625,131.356770673219 1028.646875,132.43685569773166 1029.2312499999998,133.56705963123616 1029.815625,133.8144800794941 1030.4,134.04377626679295 1030.984375,133.13421648033346 1031.56875,133.57247389478576 1032.153125,134.0274590237705 1032.7375000000002,134.30233937123614 1033.321875,132.97082809665272 1033.90625,134.37968088563068 1034.490625,136.58907795956588 1035.075,139.3752836630913 1035.659375,144.21827418937218 1036.24375,160.20283748585683 1036.828125,136.81970447562963 1037.4125,136.99773919821763 1037.9968749999998,136.3024720929905 1038.58125,136.285501243947 1039.165625,136.17405981697777 1039.75,136.28297750271008 1040.334375,136.18119493412962 1040.91875,136.62209699425307 1041.5031250000002,148.11608276714406 1042.0875,137.2339997621068 1042.671875,137.2689762498551 1043.25625,137.43055965548007 1043.840625,137.4173925743679 1044.425,137.62935404645611 1045.009375,137.92940195084807 1045.59375,138.5335649421818 1046.178125,139.22412135741882 1046.7624999999998,139.973200674608 1047.346875,136.6374390454036 1047.93125,141.3207372873 1048.515625,142.09556450595778 1049.1,139.53620829017405 1049.684375,149.40015143606092 1050.2687500000002,145.7502530048438 1050.853125,146.82555987928868 1051.4375,147.45419104894466 1052.021875,148.98663773354798 1052.60625,146.58065123248744 1053.190625,149.98155336660056 1053.775,154.01373586458996 1054.359375,165.13522167540918 1054.94375,177.1675675070863 1055.5281249999998,148.36632283978201 1056.1125,151.86932020641203 1056.696875,148.137910031305 1057.28125,148.23030147374885 1057.865625,143.8949534837446 1058.45,148.0882737168281 1059.0343750000002,147.4950724117539 1059.61875,147.59140659852687 1060.203125,147.7599912279117 1060.7875,147.90371925730963 1061.371875,147.86207368414097 1061.95625,148.35584146305547 1062.540625,148.50967061701914 1063.125,148.70083014352622 1063.709375,139.1399128545608 1064.2937499999998,141.60607498526102 1064.878125,146.19837761358616 1065.4625,157.0191921755532 1066.046875,147.99173893201902 1066.63125,145.47356949720515 1067.215625,147.66398339713868 1067.8000000000002,148.10504155410854 1068.384375,148.3168741311681 1068.96875,148.4395950219352 1069.553125,148.5642296713268 1070.1375,148.36310228198144 1070.721875,148.28986595069838 1071.30625,148.14846595570737 1071.890625,147.95594476261869 1072.475,147.83517885383256 1073.0593749999998,147.67737771275517 1073.64375,147.57401360625212 1074.228125,147.47159905091848 1074.8125,147.1874577617637 1075.396875,147.0442690267875 1075.98125,146.99456810655374 1076.5656250000002,146.94905495055758 1077.15,146.90549422754907 1077.734375,146.73418144303304 1078.31875,146.5868933892694 1078.903125,146.28817993513448 1079.4875,146.01548523491775 1080.071875,145.75086479014553 1080.65625,145.54743546873817 1081.240625,145.54953420796522 1081.8249999999998,145.2618768565484 1082.409375,144.90955694021767 1082.99375,144.5114828347337 1083.578125,143.9832853603179 1084.1625,143.54889991315815 1084.746875,143.87704219427027 1085.33125,144.57411645936972 1085.915625,145.2697755799167 1086.5,145.93322146814447 1087.0843750000001,150.42729047017133 1087.66875,146.09040882024124 1088.253125,146.77059562111268 1088.8374999999999,147.4921829082248 1089.421875,148.26184765252418 1090.00625,149.03048934437578 1090.590625,149.6730027108474 1091.175,150.48518956534483 1091.759375,151.03855437303912 1092.34375,154.4382184289822 1092.928125,163.7794866273174 1093.5125,153.44175126051442 1094.096875,154.2968702836549 1094.68125,154.92003502448802 1095.265625,155.53898696561185 1095.8500000000001,155.89640800115498 1096.434375,156.85946624740558 1097.01875,157.56141566203263 1097.6031249999999,158.29199325748868 1098.1875,158.81388998097754 1098.771875,160.1499823763691 1099.35625,162.2789540505761 1099.940625,162.90159514180746 1100.525,163.283863532997 1101.109375,153.0601239359379 1101.69375,154.10636034472282 1102.278125,155.9446769435065 1102.8625,157.45430983116447 1103.446875,154.1093125141861 1104.03125,178.48867544852126 1104.6156250000001,153.68184711311358 1105.2,153.77981154130018 1105.784375,153.9032930967371 1106.3687499999999,154.05396712522804 1106.953125,162.20812337505703 1107.5375,141.78161268055788 1108.121875,148.25049678200068 1108.70625,159.09929594062578 1109.290625,142.3868411771586 1109.875,147.97775672673325 1110.459375,153.50117365645815 1111.04375,163.5561338665184 1111.628125,152.85511173565985 1112.2125,153.18403184299436 1112.796875,153.36946378511828 1113.3812500000001,153.57482508361176 1113.965625,153.89941323987856 1114.55,154.36869549410625 1115.1343749999999,154.86486841949397 1115.71875,155.11845250741752 1116.303125,155.29758202219833 1116.8875,155.62657997844903 1117.471875,155.87458857650967 1118.05625,140.82842036093083 1118.640625,153.68513161685868 1119.225,156.56679350194426 1119.809375,148.15406256010593 1120.39375,157.08753287243505 1120.978125,157.62773617965306 1121.5625,157.81241792012582 1122.1468750000001,158.06000211532964 1122.73125,158.21985398156215 1123.315625,158.44695583495334 1123.8999999999999,158.59044181402302 1124.484375,158.98842012544426 1125.06875,159.0694570153923 1125.653125,158.94349800277993 1126.2375,159.62424384496086 1126.821875,156.2796190954816 1127.40625,159.46884829422424 1127.990625,160.07971975591866 1128.575,150.68035798778033 1129.159375,87.60706896256772 1129.74375,121.35666685884064 1130.328125,149.52211850902967 1130.9125000000001,179.76524958607223 1131.496875,172.49756788895058 1132.08125,165.941354473545 1132.6656249999999,166.79968946049087 1133.25,179.85744215331604 1133.834375,171.12916763669313 1134.41875,178.04293331339858 1135.003125,179.34022493376543 1135.5875,177.58740226005565 1136.171875,183.8845931546993 1136.75625,189.73805557430114 1137.340625,157.75065249777876 1137.925,163.29210238565554 1138.509375,167.39900987256516 1139.09375,169.96198361073442 1139.6781250000001,173.25665245255504 1140.2625,175.03592370906517 1140.846875,151.4812850197361 1141.4312499999999,151.20891145900612 1142.015625,155.372115140719 1142.6,161.9909642343469 1143.184375,151.53584488757338 1143.76875,152.4253726580867 1144.353125,152.5832291624628 1144.9375,152.0579519830423 1145.521875,151.92465228797488 1146.10625,151.19475047705146 1146.690625,150.69770453689245 1147.275,149.16365408789864 1147.859375,150.54943387288145 1148.4437500000001,157.99154641726489 1149.028125,148.325927046691 1149.6125,148.894978050517 1150.1968749999999,149.10405155472972 1150.78125,149.33615119814206 1151.365625,150.11320814811853 1151.95,150.42416642570197 1152.534375,150.78763276222165 1153.11875,149.40511396784146 1153.703125,147.24767565275374 1154.2875,156.23115887363736 1154.871875,160.114414300027 1155.45625,169.22413133940654 1156.040625,180.02002515766202 1156.625,159.4658519474154 1157.2093750000001,167.0239928626036 1157.79375,147.27121069245507 1158.378125,147.12031091014302 1158.9624999999999,148.264006455198 1159.546875,147.15326337652218 1160.13125,150.85822126096667 1160.715625,148.16029233481012 1161.3,160.7036980733647 1161.884375,147.2673884597608 1162.46875,147.55625889515113 1163.053125,147.86216003671433 1163.6375,148.07842069647467 1164.221875,148.5733584351429 1164.80625,147.83368318843617 1165.390625,147.63085528030376 1165.9750000000001,148.01457671699103 1166.559375,148.4207545274183 1167.14375,155.13266947569156 1167.7281249999999,168.25514714934297 1168.3125,149.48227570940472 1168.896875,145.8006451919271 1169.48125,148.65244351699957 1170.065625,151.14028401721185 1170.65,153.92939831779248 1171.234375,157.14971714258863 1171.81875,166.51056232438458 1172.403125,150.92234331247852 1172.9875,157.8875697182575 1173.571875,147.80705522298013 1174.15625,147.67807487042737 1174.7406250000001,147.86760661415218 1175.325,147.66857576155704 1175.909375,147.4740652865555 1176.4937499999999,147.4067915317767 1177.078125,147.87800621845776 1177.6625,148.4057515979663 1178.246875,147.8304633077243 1178.83125,154.67609993638638 1179.415625,147.10109920969626 1180.0,145.93589751708777" fill="none" stroke="#1f77b4" stroke-width="1.6" opacity="0.95"/>
<text x="1088" y="76" font-family="Arial" font-size="11" fill="#1f77b4">omega at VaR</text>
<text x="58" y="258" font-family="Arial" font-size="15" font-weight="700">SPX</text>
<line x1="58" y1="412" x2="1180" y2="412" stroke="#555"/>
<line x1="58" y1="272" x2="58" y2="412" stroke="#555"/>
<text x="50" y="276" text-anchor="end" font-family="Arial" font-size="11">388.5541812</text>
<text x="50" y="412" text-anchor="end" font-family="Arial" font-size="11">80.5721656</text>
<text x="58" y="432" font-family="Arial" font-size="11">2019-12-24</text>
<text x="1180" y="432" text-anchor="end" font-family="Arial" font-size="11">2023-12-29</text>
<polyline points="58.0,345.86755655812266 59.11089108910891,357.5315871486503 60.22178217821782,380.5990673040239 61.33267326732673,356.1797522524165 62.443564356435644,359.91525439643937 63.554455445544555,365.81465159307766 64.66534653465347,382.8963078084755 65.77623762376237,345.47063927216226 66.88712871287129,377.1647847752978 67.99801980198019,342.29094060286445 69.10891089108911,352.82960387686177 70.21980198019801,330.2757478918602 71.33069306930693,329.8142862681221 72.44158415841584,364.0676506220637 73.55247524752475,333.0968005801859 74.66336633663366,349.53813594168594 75.77425742574258,329.30205490058256 76.8851485148515,332.17871954254275 77.9960396039604,358.7357503978288 79.1069306930693,370.97672211894786 80.21782178217822,351.55329059452595 81.32871287128714,358.2459541056323 82.43960396039604,370.66306954954734 83.55049504950495,360.0812844359411 84.66138613861386,338.37880348805834 85.77227722772278,343.22816574095 86.88316831683169,354.69703889308414 87.99405940594059,334.14113312596356 89.10495049504951,334.34947149902683 90.21584158415843,333.7262002967385 91.32673267326732,332.9053166279692 92.43762376237623,329.75309102722036 93.54851485148515,332.41083228120374 94.65940594059407,354.3625232879984 95.77029702970297,333.2957461356259 96.88118811881188,333.85492770666104 97.9920792079208,334.20240306446624 99.1029702970297,338.48131991799636 100.2138613861386,331.9483507566718 101.32475247524752,328.4689904544652 102.43564356435644,330.3967885583269 103.54653465346536,341.9508935657275 104.65742574257426,346.6429094819436 105.76831683168317,355.09194898656966 106.87920792079208,344.7310899957877 107.99009900990099,344.5436651400785 109.10099009900989,344.956913580887 110.21188118811881,344.82125716513633 111.32277227722773,344.98960859576056 112.43366336633665,345.05601408937093 113.54455445544555,344.86572884129384 114.65544554455445,346.56919394922926 115.76633663366337,346.4785153671347 116.87722772277228,346.53961109111646 117.98811881188118,342.0978017476145 119.0990099009901,347.42077768621687 120.20990099009902,347.97721909103797 121.32079207920792,347.70184193751584 122.43168316831684,347.5669789417014 123.54257425742574,347.29270910644703 124.65346534653465,347.03205202116555 125.76435643564356,344.4810341666389 126.87524752475247,354.3153874782817 127.98613861386139,343.0271771334567 129.0970297029703,359.55379979656476 130.20792079207922,347.4071316117175 131.31881188118814,347.2960944552731 132.42970297029703,347.05521286348664 133.54059405940595,347.1329521586895 134.65148514851484,346.9019173135083 135.76237623762376,346.70791438970974 136.87326732673267,347.4234181872336 137.9841584158416,347.45939152743705 139.0950495049505,347.4560419870205 140.2059405940594,347.5124780628672 141.31683168316832,347.6096022272814 142.4277227722772,347.48900497964263 143.53861386138612,346.71813565146806 144.64950495049504,344.72915898895656 145.76039603960396,352.92581003025225 146.87128712871288,347.56863418056486 147.9821782178218,347.75330245888654 149.09306930693072,351.60722492387237 150.2039603960396,347.6838448174642 151.31485148514852,347.5158908776099 152.4257425742574,347.44844072627785 153.53663366336633,347.3995218209872 154.64752475247525,347.59427036168285 155.75841584158417,354.2452231719125 156.86930693069306,344.13646142289815 157.98019801980197,351.1389329006044 159.0910891089109,347.58546041266806 160.20198019801978,353.6047890731706 161.3128712871287,347.55010195735196 162.42376237623762,347.58142232128745 163.53465346534654,347.3835223107577 164.64554455445545,347.6133269064255 165.75643564356437,347.52919754325023 166.8673267326733,347.2070352341233 167.97821782178218,347.0149745102556 169.0891089108911,347.82775241418085 170.2,347.93451091512685 171.3108910891089,347.92174641142924 172.42178217821782,347.88976594257855 173.53267326732674,348.7308356750026 174.64356435643563,351.2674821210615 175.75445544554455,348.15523267043386 176.86534653465347,346.63971148157844 177.97623762376236,350.39209989248195 179.08712871287128,360.7800281026789 180.1980198019802,360.6769424270333 181.3089108910891,357.073199701332 182.41980198019803,360.96791111089584 183.53069306930695,358.0378638647996 184.64158415841584,361.299198435723 185.75247524752476,365.2842391624022 186.86336633663367,367.84203782873476 187.9742574257426,373.54038252563885 189.08514851485148,375.39284329588213 190.1960396039604,402.3448275862069 191.3069306930693,382.4815312895604 192.4178217821782,353.3209215988152 193.52871287128713,353.34161113966155 194.63960396039604,353.2011602017749 195.75049504950493,353.1536696223647 196.86138613861385,353.08941341736033 197.97227722772277,353.22860291374286 199.0831683168317,353.1267886503264 200.1940594059406,353.05064399827404 201.3049504950495,352.72499216868175 202.41584158415841,352.6222195532626 203.52673267326733,352.38494602215735 204.63762376237625,352.1416475944468 205.74851485148517,352.11451646240783 206.85940594059406,352.0467957538186 207.97029702970298,351.9210899858505 209.0811881188119,351.7980087724414 210.1920792079208,351.76528467583057 211.3029702970297,351.7322911950231 212.41386138613862,351.76095378974264 213.52475247524754,351.68398716994557 214.63564356435646,351.70193976552105 215.74653465346537,351.67970226070884 216.85742574257424,351.63377106592463 217.96831683168315,351.77172355551767 219.07920792079207,348.6701890799248 220.190099009901,351.3171808532921 221.30099009900988,351.1737122698233 222.4118811881188,350.9714439130458 223.52277227722772,350.92451893034536 224.63366336633663,350.97067697809007 225.74455445544552,350.9086575779746 226.85544554455444,350.7887963425466 227.96633663366336,350.74455352080133 229.07722772277228,350.68668686624477 230.1881188118812,350.61978544745637 231.2990099009901,350.62599331227034 232.409900990099,350.665483714402 233.52079207920792,350.70362661036097 234.63168316831684,350.3511740507211 235.74257425742576,350.6607111615368 236.85346534653465,351.2631046216542 237.96435643564357,352.8275328077143 239.07524752475248,353.6277954209865 240.1861386138614,354.3726553978359 241.2970297029703,355.4987820428256 242.4079207920792,356.84005755426847 243.51881188118813,358.81902016417337 244.62970297029705,359.9305500227803 245.74059405940596,362.90226521581945 246.85148514851485,365.95107759687187 247.96237623762377,370.29454789635366 249.0732673267327,387.08937205355846 250.1841584158416,331.7283015159374 251.29504950495047,367.1385213971804 252.4059405940594,336.6720748150791 253.5168316831683,337.17238072301694 254.62772277227722,337.23337343695556 255.7386138613861,337.25725002511035 256.84950495049503,337.15891749414874 257.96039603960395,337.1000153148096 259.07128712871287,337.02736218229796 260.1821782178218,324.62892314614703 261.29306930693065,338.8412915256451 262.40396039603957,336.74722243112825 263.5148514851485,326.53288566237217 264.6257425742574,341.402618453389 265.7366336633663,336.728651534316 266.84752475247524,336.73270468744613 267.95841584158416,337.05256680401664 269.0693069306931,326.0242381663331 270.180198019802,325.2126070581456 271.2910891089109,326.6674848358119 272.4019801980198,334.8228799040911 273.51287128712875,352.72883666613785 274.62376237623766,337.0294171828818 275.7346534653466,337.1117618088906 276.84554455445544,337.0949918344501 277.95643564356436,337.08079102733745 279.0673267326733,336.9475038965378 280.1782178217822,337.0658700005429 281.28910891089106,337.1821553209304 282.4,336.91768974193883 283.5108910891089,337.1050291878011 284.6217821782178,337.31884247959954 285.73267326732673,337.36933341303325 286.84356435643565,337.36687110446303 287.95445544554457,337.10844364565133 289.0653465346535,336.88553044746726 290.1762376237624,331.06157156247707 291.28712871287127,329.1309555927161 292.3980198019802,336.15345751543407 293.5089108910891,336.2454959580954 294.619801980198,335.8217201042262 295.73069306930694,331.9654900710751 296.8415841584158,331.56628105119637 297.9524752475247,331.041643286242 299.06336633663364,330.8309615778568 300.17425742574255,330.69968786243885 301.28514851485147,330.5538430099418 302.3960396039604,330.30579136369215 303.5069306930693,330.594904094373 304.6178217821782,330.67222283675284 305.72871287128714,331.06099056326616 306.83960396039606,331.2470912203627 307.950495049505,331.3994904344293 309.0613861386139,331.3725094157747 310.1722772277228,331.4919705937755 311.2831683168317,331.9478133456582 312.3940594059406,332.015138086581 313.5049504950495,332.1692692512388 314.61584158415843,332.2763653609305 315.72673267326735,332.337656099787 316.83762376237627,332.07232799970393 317.9485148514852,332.42280621730845 319.05940594059405,332.34902397805405 320.17029702970297,332.6334991321869 321.2811881188119,332.2073322253525 322.3920792079208,332.57763571372465 323.50297029702966,336.03516271024614 324.6138613861386,332.6168945489905 325.7247524752475,333.0731997166494 326.8356435643564,333.3374377320645 327.94653465346533,332.91234506914856 329.05742574257425,332.96292635873874 330.16831683168317,332.9852547766702 331.2792079207921,333.0061222570396 332.390099009901,325.01985901164284 333.50099009900987,336.9387513829943 334.6118811881188,333.5613255675286 335.7227722772277,333.78114183680566 336.8336633663366,333.78551285668806 337.94455445544554,333.6165908996637 339.05544554455446,333.6278948752323 340.1663366336634,333.60128651926846 341.2772277227723,333.1316533931887 342.3881188118812,333.41989618972787 343.49900990099013,333.65865358120703 344.609900990099,333.43582743725585 345.7207920792079,330.7316949887868 346.83168316831683,330.6099864321848 347.94257425742575,330.4732321109271 349.05346534653467,330.49511515964986 350.1643564356436,330.5831360484241 351.2752475247525,330.73426401094343 352.3861386138614,330.7700501669542 353.49702970297034,330.77228011199213 354.6079207920792,330.81346423604185 355.7188118811881,330.8296196054587 356.82970297029703,322.58615028268946 357.94059405940595,330.42047161971436 359.05148514851487,330.7567715572716 360.1623762376238,331.04406948712733 361.2732673267327,331.1683471654837 362.3841584158416,331.3613312093913 363.49504950495054,334.9502252637097 364.6059405940594,334.908665231578 365.7168316831683,334.98815779742256 366.82772277227724,334.9292550971594 367.93861386138616,334.9466564487 369.0495049504951,335.01300684395966 370.160396039604,335.0067007569749 371.2712871287129,335.02649584003234 372.38217821782183,334.8941908745613 373.49306930693075,334.7721034627418 374.60396039603955,334.60271697797435 375.7148514851485,334.3015117377399 376.8257425742574,334.02717433488397 377.9366336633663,333.8155825641471 379.0475247524752,333.60801946523657 380.15841584158414,333.399120050075 381.26930693069306,333.00946851020376 382.380198019802,333.3139246557277 383.49108910891084,333.3795896379512 384.60198019801976,333.6436565834924 385.7128712871287,332.42172990291954 386.8237623762376,332.4882770832702 387.9346534653465,332.2288915319483 389.04554455445543,332.28219363992986 390.15643564356435,332.37800659047366 391.26732673267327,332.3242266478969 392.3782178217822,319.954446412269 393.48910891089105,323.6981845171133 394.59999999999997,329.2692450947786 395.7108910891089,345.8255519324673 396.8217821782178,331.4862200727879 397.9326732673267,331.3370725322721 399.04356435643564,331.19481662295976 400.15445544554456,330.9904182742808 401.2653465346535,330.78757000648994 402.3762376237624,331.4445913028309 403.4871287128713,331.45285501225106 404.5980198019802,331.4946233631364 405.7089108910891,331.40782320721564 406.819801980198,331.40064293872126 407.9306930693069,331.4521758382538 409.04158415841584,330.88385113324136 410.15247524752476,330.6665569766407 411.2633663366337,330.4942580824493 412.3742574257426,330.42660763841366 413.4851485148515,330.64568832735534 414.5960396039604,316.54208384734375 415.7069306930693,330.6557449299941 416.8178217821782,330.72982788546653 417.92871287128713,330.49327246170384 419.03960396039605,330.60518637918995 420.15049504950497,330.666876031752 421.2613861386139,330.3366571996613 422.3722772277228,330.95184947605827 423.4831683168317,331.3397672916661 424.5940594059406,330.9272489138582 425.7049504950495,330.79214364140114 426.8158415841584,330.7778658356167 427.92673267326734,330.8133177732618 429.03762376237626,331.1125424873407 430.1485148514852,331.308238550965 431.2594059405941,331.555278933149 432.370297029703,332.3901657476344 433.48118811881193,333.0045415082176 434.5920792079208,333.95389247153446 435.7029702970297,335.339312922854 436.8138613861386,338.2226392877636 437.92475247524754,341.81725202490617 439.03564356435646,352.6369465513656 440.1465346534654,365.48570685988966 441.2574257425743,326.4977397121838 442.3683168316832,325.9680777624556 443.47920792079213,325.7188050257307 444.59009900990094,325.8316950947501 445.70099009900986,325.6474707178299 446.8118811881188,325.4977818719103 447.9227722772277,325.5047190314872 449.0336633663366,325.5133670849689 450.14455445544553,325.42785062551303 451.25544554455445,325.386260163535 452.36633663366337,325.3037458219114 453.4772277227722,325.4732629990581 454.58811881188115,325.7545765529029 455.69900990099006,325.88156632212645 456.809900990099,325.98827839611323 457.9207920792079,326.0050042655987 459.0316831683168,325.9397674749192 460.14257425742574,325.79992880808686 461.25346534653465,325.8092326675319 462.3643564356436,325.9371025946134 463.4752475247525,326.1744622667627 464.58613861386135,326.3276689638192 465.69702970297027,320.2880750079721 466.8079207920792,326.4827746909384 467.9188118811881,326.58012144581136 469.029702970297,326.6058052910208 470.14059405940594,318.761333413315 471.25148514851486,327.35324193891495 472.3623762376238,326.4511913649338 473.4732673267327,329.23157555798116 474.58415841584156,326.777120795468 475.6950495049505,326.7391165004233 476.8059405940594,320.15896477693815 477.9168316831683,332.0059526871008 479.02772277227723,326.8113388814894 480.13861386138615,326.57024058084636 481.24950495049507,326.4312347594529 482.360396039604,326.1934317673175 483.4712871287129,325.83803643599026 484.58217821782176,325.5856355031967 485.6930693069307,325.8727692061145 486.8039603960396,326.0533332578097 487.9148514851485,325.832763588494 489.02574257425744,325.89100772514666 490.13663366336635,326.4415276812566 491.2475247524753,327.02273039691005 492.3584158415842,327.56524791491313 493.4693069306931,328.15789291790907 494.58019801980197,328.6810268524565 495.6910891089109,329.32482462689205 496.8019801980198,329.75604943467107 497.9128712871287,330.2181862526231 499.02376237623764,330.96704378245624 500.13465346534656,331.54922746081644 501.2455445544555,333.22907291245457 502.3564356435644,334.9948064334171 503.4673267326733,337.648336673077 504.5782178217822,345.8336365721422 505.6891089108911,357.0649680681738 506.8,330.2633356331967 507.91089108910893,331.2955181555486 509.02178217821785,342.2780182355232 510.13267326732677,347.3637751449551 511.2435643564357,359.2966274018924 512.3544554455445,333.31876067431256 513.4653465346535,333.38459704254285 514.5762376237624,333.43747979055047 515.6871287128713,333.18631561977486 516.7980198019802,333.322745404092 517.9089108910891,333.36442281176653 519.019801980198,333.26966484057016 520.130693069307,333.7325772493432 521.2415841584159,333.40406290623264 522.3524752475248,333.36641749656883 523.4633663366337,333.3505143011762 524.5742574257425,329.51633702838285 525.6851485148514,333.79957114064496 526.7960396039604,333.82263958747944 527.9069306930693,333.73745533136986 529.0178217821782,333.69065207903446 530.1287128712871,333.3063386121619 531.239603960396,333.494316133675 532.350495049505,333.62830547651623 533.4613861386139,333.800924488989 534.5722772277227,333.91946798184887 535.6831683168316,333.9508027170396 536.7940594059405,334.01989661615835 537.9049504950494,334.2497426458352 539.0158415841584,333.9829790066842 540.1267326732673,333.97934174145564 541.2376237623762,334.00272933284236 542.3485148514851,333.99846058032875 543.459405940594,333.96896438015574 544.5702970297029,334.6976291068003 545.6811881188119,334.26108826638824 546.7920792079208,334.05070670153384 547.9029702970297,334.0120616070028 549.0138613861386,334.08113657955096 550.1247524752475,334.10621895291774 551.2356435643565,333.40949214156774 552.3465346534654,332.9981658611176 553.4574257425743,332.93562207756634 554.5683168316832,332.77799717637583 555.6792079207921,332.77539321212834 556.790099009901,332.62150456785884 557.90099009901,332.5487013140028 559.0118811881189,332.53056062831047 560.1227722772278,332.6957723831298 561.2336633663367,332.8081260643366 562.3445544554456,332.8279940664984 563.4554455445545,332.8699530015701 564.5663366336634,332.5451365363649 565.6772277227723,332.67586256677225 566.7881188118812,333.0891862366476 567.8990099009901,332.76435768318316 569.009900990099,333.1607180257976 570.120792079208,333.53666350258845 571.2316831683169,333.98058787280513 572.3425742574258,333.9929373592498 573.4534653465347,334.27083057661565 574.5643564356436,334.2911793507036 575.6752475247525,334.13483419526716 576.7861386138615,334.41202684428765 577.8970297029704,334.6546173043983 579.0079207920793,334.7519749750119 580.1188118811881,334.62887507452297 581.229702970297,334.7697627987105 582.3405940594059,334.8756393165379 583.4514851485148,335.0453599422391 584.5623762376238,335.1812365816902 585.6732673267327,335.17401898011747 586.7841584158416,334.8645712614226 587.8950495049505,334.8132786364709 589.0059405940593,334.8173992061614 590.1168316831682,334.7137770812899 591.2277227722772,334.4294199980498 592.3386138613861,334.33151632829686 593.449504950495,334.1786282479414 594.5603960396039,334.18924247135567 595.6712871287128,334.08303809783615 596.7821782178218,333.9797584239434 597.8930693069307,339.88919719297184 599.0039603960396,339.5969578169118 600.1148514851485,339.6729213159674 601.2257425742574,339.38804599985497 602.3366336633663,339.12453645888576 603.4475247524753,338.8449909541999 604.5584158415842,338.6119529473293 605.6693069306931,338.603584803024 606.780198019802,338.7189433238228 607.8910891089109,338.84975221246685 609.0019801980197,338.8063987139875 610.1128712871287,338.87160699005545 611.2237623762376,338.8368928380125 612.3346534653465,338.966459684502 613.4455445544554,339.02008710234537 614.5564356435643,339.05027293452554 615.6673267326732,339.02685079406103 616.7782178217822,339.08553754148664 617.8891089108911,339.0304691143169 619.0,339.090489955591 620.1108910891089,338.95660914171145 621.2217821782178,339.3009974626183 622.3326732673268,339.5753674107526 623.4435643564357,339.75640015312797 624.5544554455446,339.90103171744755 625.6653465346535,339.9545042606684 626.7762376237624,340.119955667252 627.8871287128713,336.5358593529923 628.9980198019803,336.34447469865233 630.1089108910891,335.38514535263397 631.219801980198,334.48709875806827 632.3306930693069,334.0094379540161 633.4415841584158,333.3719075432296 634.5524752475247,332.99440087861 635.6633663366337,320.0679777108989 636.7742574257426,332.00324995441645 637.8851485148515,344.2334647053617 638.9960396039604,347.87047294847184 640.1069306930693,360.13325678881625 641.2178217821782,393.01388042925106 642.3287128712872,349.3915962021014 643.4396039603961,367.35632009437865 644.550495049505,390.3059304587946 645.6613861386139,329.6445602708802 646.7722772277228,329.8637095890615 647.8831683168318,330.0465223704722 648.9940594059407,330.24409792941185 650.1049504950495,328.6074235372838 651.2158415841584,327.9520569066856 652.3267326732673,327.4716167005553 653.4376237623762,327.18718005323825 654.5485148514852,327.2836063705612 655.6594059405941,327.66167198045304 656.770297029703,328.21888627526215 657.8811881188119,347.3095358365406 658.9920792079208,341.82663225486294 660.1029702970297,349.0528686372339 661.2138613861387,328.1797382884018 662.3247524752476,327.7273915004634 663.4356435643565,326.8931967206163 664.5465346534654,326.57161600863384 665.6574257425743,326.48744675153523 666.7683168316833,326.1575034026471 667.8792079207922,327.60355904454946 668.9900990099011,328.25335818470046 670.1009900990099,323.1517266900909 671.2118811881188,316.59560858087224 672.3227722772277,323.4875956476401 673.4336633663366,339.30349525278143 674.5445544554456,356.4867323402411 675.6554455445545,362.42931059256796 676.7663366336634,375.9217711998202 677.8772277227723,368.4453312834369 678.9881188118812,327.2673481526708 680.0990099009902,360.5130291879143 681.2099009900991,334.43345049884516 682.320792079208,337.73357368419374 683.4316831683169,371.3999250620905 684.5425742574258,332.0256992172841 685.6534653465347,338.5917838299528 686.7643564356437,351.00619633258816 687.8752475247526,370.13705062786465 688.9861386138615,329.1289356912001 690.0970297029702,329.36428037384906 691.2079207920791,328.8979802090642 692.318811881188,329.1598355055902 693.429702970297,328.6648137923272 694.5405940594059,327.97237950737497 695.6514851485148,327.6546744322452 696.7623762376237,327.7735758506336 697.8732673267326,327.6630214411753 698.9841584158415,332.7653875472608 700.0950495049505,338.81398353826535 701.2059405940594,349.71354728308546 702.3168316831683,328.0430544418416 703.4277227722772,327.90503474912396 704.5386138613861,328.0107440606007 705.649504950495,331.09642160761524 706.760396039604,328.2825403352592 707.8712871287129,325.8366121186985 708.9821782178217,328.58904368498776 710.0930693069306,331.168289673235 711.2039603960395,329.855277779733 712.3148514851484,331.25126196366716 713.4257425742574,330.0068920527337 714.5366336633663,330.0653173607786 715.6475247524752,331.3028883521232 716.7584158415841,330.1705908114215 717.869306930693,329.20167888698364 718.980198019802,329.89537050470403 720.0910891089109,330.44223224187436 721.2019801980198,329.4459968054807 722.3128712871287,329.85057855928363 723.4237623762376,328.8616134267486 724.5346534653465,328.3714815109313 725.6455445544555,327.6224373084664 726.7564356435644,328.62199089769973 727.8673267326733,341.79189566617 728.9782178217821,328.15873841047113 730.089108910891,326.4686327437658 731.1999999999999,327.0976806578951 732.3108910891088,327.09235567493783 733.4217821782178,327.7328605504301 734.5326732673267,328.41567615890585 735.6435643564356,329.03723545134574 736.7544554455445,330.18633038748305 737.8653465346534,331.7237647972269 738.9762376237624,332.2655305749956 740.0871287128713,332.5369747196211 741.1980198019802,333.1063219756542 742.3089108910891,333.5815295556087 743.419801980198,333.7221738897651 744.530693069307,333.4293078436069 745.6415841584159,333.0425753903468 746.7524752475248,333.04705759997364 747.8633663366337,338.52609971141845 748.9742574257426,351.88686333351137 750.0851485148514,329.65340972661556 751.1960396039603,333.326357362227 752.3069306930693,329.1803852868634 753.4178217821782,329.7978144648901 754.5287128712871,329.41854167117975 755.639603960396,329.2416851209274 756.7504950495049,328.48434500001815 757.8613861386139,329.0352778572852 758.9722772277228,328.7659083547816 760.0831683168317,329.17492177727183 761.1940594059406,324.8057022932229 762.3049504950495,329.00367640087836 763.4158415841584,329.14165297870517 764.5267326732674,328.8807763855648 765.6376237623763,328.18006682333214 766.7485148514852,329.02492073847077 767.8594059405941,328.24437048343066 768.970297029703,328.42383934073905 770.0811881188118,328.204749946917 771.1920792079208,328.0568466597314 772.3029702970297,327.80660788126534 773.4138613861386,328.9958467487617 774.5247524752475,329.0527371955991 775.6356435643564,327.99886740556553 776.7465346534653,328.38748691326623 777.8574257425743,328.8280441631068 778.9683168316832,329.11314887027294 780.0792079207921,329.5445498205246 781.190099009901,329.79841978029754 782.3009900990099,328.4654985908794 783.4118811881189,328.4847147429276 784.5227722772278,328.12745074667953 785.6336633663367,326.37283119186657 786.7445544554456,327.5722662205608 787.8554455445545,327.2075853900458 788.9663366336634,325.68897600663115 790.0772277227722,326.40051084490665 791.1881188118812,325.989112479052 792.2990099009901,325.5327059182622 793.409900990099,329.0689694875317 794.5207920792079,329.29563133063743 795.6316831683168,329.15977981182755 796.7425742574258,329.2571883353649 797.8534653465347,329.352713443105 798.9643564356436,329.610825519099 800.0752475247525,329.9151848732011 801.1861386138614,330.7279987107546 802.2970297029703,329.03758346280813 803.4079207920793,330.58902815139413 804.5188118811882,331.6583929413649 805.6297029702971,331.8207043454428 806.740594059406,330.3811244091087 807.8514851485149,331.84670837844357 808.9623762376239,332.9459156648598 810.0732673267327,334.052929393154 811.1841584158416,333.53401844339317 812.2950495049505,333.3026816601525 813.4059405940594,332.8624334255668 814.5168316831683,333.11232155530746 815.6277227722773,332.98445569655064 816.7386138613862,333.120979854345 817.8495049504951,333.4825388121266 818.960396039604,318.2194037109749 820.0712871287129,317.1182245352036 821.1821782178218,316.49035258343605 822.2930693069308,316.3211488768659 823.4039603960397,316.37629007750985 824.5148514851486,316.83503373040855 825.6257425742575,318.440082235563 826.7366336633664,319.3041567575949 827.8475247524754,322.71831572678764 828.9584158415843,335.67828267222114 830.069306930693,351.0544601979941 831.1801980198019,360.1709827120067 832.2910891089108,378.4711033913024 833.4019801980197,347.5311955775914 834.5128712871286,285.5887139585567 835.6237623762376,288.6981012444637 836.7346534653465,289.72588011231653 837.8455445544554,309.48954241716996 838.9564356435643,330.0847043850457 840.0673267326732,322.9813897127078 841.1782178217821,325.57846908848774 842.2891089108911,336.4065313345495 843.4,375.3529950953442 844.5108910891089,319.828544989667 845.6217821782178,341.7162501327625 846.7326732673267,300.7724387509328 847.8435643564356,319.8831131478968 848.9544554455445,319.980521692137 850.0653465346534,320.30416031656137 851.1762376237623,320.5802137881958 852.2871287128712,320.3587885665936 853.3980198019801,320.57386577449574 854.508910891089,320.6755084301119 855.619801980198,283.9959859603116 856.7306930693069,281.65517241379314 857.8415841584158,350.6035628939123 858.9524752475247,321.9360549165993 860.0633663366336,288.93926147851045 861.1742574257426,290.9224597988513 862.2851485148515,319.28377039880894 863.3960396039604,339.8631453950908 864.5069306930693,346.4567691555314 865.6178217821782,329.0639900663007 866.7287128712871,307.6049460169497 867.8396039603961,330.9436338127225 868.950495049505,334.0561029333253 870.0613861386138,335.0973417322665 871.1722772277227,348.49714088049285 872.2831683168316,350.67051163920684 873.3940594059405,357.3471105827518 874.5049504950495,387.79960833583226 875.6158415841584,359.09052127382444 876.7267326732673,372.3438145399969 877.8376237623762,336.0346751356956 878.9485148514851,338.25271724328144 880.059405940594,341.83813353267135 881.170297029703,352.4368675962535 882.2811881188119,365.0848294623018 883.3920792079208,368.9797612434564 884.5029702970297,342.00579897491457 885.6138613861386,355.39870375869424 886.7247524752476,356.54371527984324 887.8356435643565,368.5938075917211 888.9465346534654,380.98825757598684 890.0574257425742,321.0545740032213 891.1683168316831,342.6114024565399 892.279207920792,347.902563573798 893.390099009901,350.95144596308876 894.5009900990099,365.7381306140183 895.6118811881188,378.24539002142706 896.7227722772277,321.34251196282753 897.8336633663366,323.0791557429304 898.9445544554455,323.27686515891236 900.0554455445545,323.6714038463015 901.1663366336634,323.6589687465267 902.2772277227723,323.3536456168412 903.3881188118812,323.43806733808174 904.4990099009901,323.2924258025189 905.609900990099,323.5574012135276 906.720792079208,323.59679773221393 907.8316831683169,323.05116876432953 908.9425742574258,353.95954372300605 910.0534653465346,322.44437535562906 911.1643564356435,322.55568489315306 912.2752475247524,322.4343785919383 913.3861386138614,329.62723591360293 914.4970297029703,322.0905803425186 915.6079207920792,322.7437706877672 916.7188118811881,323.4531157077466 917.829702970297,322.99905124926386 918.940594059406,322.50198938484107 920.0514851485149,322.5615506071087 921.1623762376238,322.08762706342657 922.2732673267327,335.5556627553886 923.3841584158416,321.76314951621794 924.4950495049505,321.2881237835245 925.6059405940595,321.15627459246207 926.7168316831684,320.94735070876436 927.8277227722773,320.63278511713315 928.9386138613862,320.89367801368974 930.049504950495,322.1474214116098 931.1603960396039,323.137190705044 932.2712871287129,324.33655774317924 933.3821782178218,324.3219112805064 934.4930693069307,324.2363274587598 935.6039603960396,323.9082337648332 936.7148514851485,323.52146279271466 937.8257425742574,323.07361011781217 938.9366336633664,322.10185178329766 940.0475247524753,320.921936235409 941.1584158415842,319.42192422474943 942.2693069306931,318.37626631020447 943.380198019802,321.0932098382149 944.491089108911,320.03961346595315 945.6019801980199,319.9563041213187 946.7128712871288,321.49618877014825 947.8237623762377,321.96118829178374 948.9346534653466,323.1853223117178 950.0455445544555,324.1652094148118 951.1564356435644,325.8064969541796 952.2673267326733,327.4598486834993 953.3782178217822,328.9150872944526 954.4891089108911,333.54699006178566 955.6,365.5579978414546 956.7108910891089,327.77743693413413 957.8217821782179,326.95693494086794 958.9326732673268,327.10140059865165 960.0435643564357,326.3270084527785 961.1544554455446,326.2553116769508 962.2653465346535,326.4059821194166 963.3762376237624,326.6191284242039 964.4871287128714,327.07148821539744 965.5980198019803,327.0160455558409 966.7089108910892,326.85851187879825 967.8198019801981,326.70584204390764 968.930693069307,326.6310670703335 970.0415841584157,326.50796393979834 971.1524752475246,326.4712892866863 972.2633663366336,325.8063754318105 973.3742574257425,325.79313336729194 974.4851485148514,325.78990364904934 975.5960396039603,325.7209207622507 976.7069306930692,325.3321806337104 977.8178217821782,325.0350587974727 978.9287128712871,324.62963429594214 980.039603960396,323.00074080744963 981.1504950495049,321.1384938578387 982.2613861386138,320.2943606016699 983.3722772277227,318.5335020393215 984.4831683168317,317.1971609477096 985.5940594059406,322.3597782809209 986.7049504950495,304.2073038165833 987.8158415841584,301.8757935117618 988.9267326732673,306.51060894251845 990.0376237623761,339.3437000518984 991.1485148514851,344.627049257634 992.259405940594,348.8391711569036 993.3702970297029,358.2328904745727 994.4811881188118,374.60709176565797 995.5920792079207,335.3299726568109 996.7029702970297,335.8924762068392 997.8138613861386,336.3099639347509 998.9247524752475,335.6824320479559 1000.0356435643564,319.28745615699705 1001.1465346534653,336.00838467655774 1002.2574257425742,325.6893533897133 1003.3683168316832,342.9577440600291 1004.4792079207921,334.9484415025152 1005.590099009901,328.1504579548555 1006.7009900990099,320.71842090111465 1007.8118811881188,333.90940168424527 1008.9227722772278,347.29812258890377 1010.0336633663366,332.12280725915195 1011.1445544554455,330.74188633518753 1012.2554455445544,331.3729008403823 1013.3663366336633,331.58172386993095 1014.4772277227722,331.57648704412975 1015.5881188118811,331.2357240141407 1016.6990099009901,331.68221990792625 1017.809900990099,331.5970336444295 1018.9207920792079,331.1941086874399 1020.0316831683168,330.7025281092097 1021.1425742574257,330.58049460883143 1022.2534653465347,330.15168078382857 1023.3643564356436,329.81383211428914 1024.4752475247524,329.3671876775926 1025.5861386138613,328.9922612529094 1026.6970297029702,317.9638599299245 1027.8079207920791,330.92556968508825 1028.918811881188,327.982503019154 1030.029702970297,328.9211039639409 1031.1405940594059,329.20518359686344 1032.2514851485148,329.5608968792127 1033.3623762376237,330.11891303545815 1034.4732673267326,330.8415563993136 1035.5841584158416,331.68437242048077 1036.6950495049505,332.77529380864195 1037.8059405940594,333.01588886015765 1038.9168316831683,334.3603406578763 1040.0277227722772,335.42282706469376 1041.1386138613861,336.6027560720675 1042.249504950495,337.9675294282841 1043.360396039604,339.1357883646914 1044.471287128713,319.24356100702255 1045.5821782178218,341.4753004565444 1046.6930693069307,337.19255298919984 1047.8039603960397,343.9893512267685 1048.9148514851486,345.25378459652944 1050.0257425742575,346.4761505662494 1051.1366336633664,347.62278394818634 1052.2475247524753,348.4094036975362 1053.3584158415842,316.63225261213995 1054.4693069306932,323.0931490942983 1055.580198019802,339.96104502336175 1056.691089108911,340.25261297448475 1057.80198019802,347.965081057407 1058.9128712871288,393.65190434667056 1060.0237623762378,342.86764020208784 1061.1346534653467,343.77705989634865 1062.2455445544556,343.07705380115357 1063.3564356435645,317.8407635899027 1064.4673267326734,346.7138135249111 1065.5782178217823,361.52147594735555 1066.6891089108913,392.60166107499333 1067.8000000000002,350.2428966323466 1068.910891089109,351.07456544622795 1070.021782178218,354.4828836093895 1071.1326732673267,338.4281029782245 1072.2435643564356,367.2815741231834 1073.3544554455445,377.72484835946346 1074.4653465346535,387.3554454410508 1075.5762376237624,345.0366720748143 1076.6871287128713,345.1147913820253 1077.7980198019802,344.9598791740362 1078.9089108910891,344.5596359151997 1080.019801980198,344.4928961161056 1081.130693069307,342.82478300107124 1082.241584158416,343.93881221548645 1083.3524752475248,343.5251435639675 1084.4633663366337,342.95197396871146 1085.5742574257426,342.0446789461486 1086.6851485148516,341.5517203010796 1087.7960396039605,342.9376522663338 1088.9069306930694,344.1292993894853 1090.0178217821783,345.12859802979955 1091.1287128712872,345.86837887620163 1092.2396039603962,346.5100337419708 1093.350495049505,347.1805990806264 1094.461386138614,347.50995574897047 1095.572277227723,347.6996131989525 1096.6831683168318,341.2944982811623 1097.7940594059407,350.19541900308747 1098.9049504950497,347.20456206107104 1100.0158415841586,347.3244115629721 1101.1267326732673,339.349401356882 1102.2376237623762,348.0818218909002 1103.348514851485,361.8087046780494 1104.459405940594,375.5951070046238 1105.570297029703,344.2611346942012 1106.6811881188119,340.4023447186106 1107.7920792079208,352.7471002707627 1108.9029702970297,370.5712683842754 1110.0138613861386,345.6485801522123 1111.1247524752475,345.4191523684396 1112.2356435643565,344.979296518095 1113.3465346534654,345.24960233166263 1114.4574257425743,345.06578962203804 1115.5683168316832,345.25693741924323 1116.6792079207921,345.02148792933707 1117.790099009901,344.8823224044644 1118.90099009901,344.462716191286 1120.0118811881187,344.21004388508123 1121.1227722772276,343.8526395375005 1122.2336633663365,343.65664561293215 1123.3445544554454,343.6803844195425 1124.4554455445543,343.6012286198493 1125.5663366336632,344.3497119758327 1126.6772277227722,344.6309969590318 1127.788118811881,344.64186181240257 1128.89900990099,345.41214182224314 1130.009900990099,345.9400429988209 1131.1207920792078,346.31629253356397 1132.2316831683167,346.7851629482051 1133.3425742574257,347.7374285458226 1134.4534653465346,348.112700261209 1135.5643564356435,348.6756695363728 1136.6752475247524,348.9223112004831 1137.7861386138613,349.16751005714883 1138.8970297029703,349.42523044237834 1140.0079207920792,349.6773197061745 1141.118811881188,349.79291288204695 1142.229702970297,349.63706819663344 1143.340594059406,349.6422282846589 1144.4514851485148,349.74076062800845 1145.5623762376238,349.6583330204807 1146.6732673267327,349.694190204758 1147.7841584158416,349.8588591786349 1148.8950495049505,349.72557682068236 1150.0059405940594,349.4527086899785 1151.1168316831684,334.809625496697 1152.2277227722773,326.3666149557847 1153.3386138613862,347.99094196928854 1154.449504950495,347.5928823275064 1155.560396039604,347.14364515101755 1156.671287128713,346.78577718533813 1157.7821782178219,346.3431715331547 1158.8930693069308,346.13068025741217 1160.0039603960395,346.29083434746144 1161.1148514851484,346.5525531086599 1162.2257425742573,346.83338724721557 1163.3366336633662,347.14708871680716 1164.4475247524751,347.55472331008997 1165.558415841584,347.8536805119088 1166.669306930693,348.1264557273501 1167.780198019802,348.3906922281077 1168.8910891089108,348.9393944730004 1170.0019801980197,349.46319341753235 1171.1128712871287,349.981029665278 1172.2237623762376,350.30308561535855 1173.3346534653465,350.38579552594626 1174.4455445544554,350.81482581908324 1175.5564356435643,321.5566340127588 1176.6673267326732,352.10315056665047 1177.7782178217822,353.1599361738472 1178.889108910891,354.00402312133133 1180.0,354.81356722836136" fill="none" stroke="#1f77b4" stroke-width="1.6" opacity="0.95"/>
<text x="1088" y="286" font-family="Arial" font-size="11" fill="#1f77b4">omega at VaR</text>
</svg>
